<svg width="516" height="516" viewBox="0 0 516 516" fill="none" xmlns="http://www.w3.org/2000/svg">
<path d="M507.544 200.347L507.361 199.622L507.27 199.251L489.639 150.503L489.767 150.606L489.304 149.547L489.347 149.462L489.231 149.365L488.999 148.756V148.811L476.811 120.88L476.165 119.748L476.031 119.51L473.41 115.141L463.221 100.445L463.087 100.269L463.056 100.226L458.79 94.9322L456.779 92.4981L456.737 92.4494L454.299 89.6746L449.698 84.5204L448.004 82.6948L446.785 81.3925L446.029 80.6136L442.293 76.7921L442.257 76.7617L442.19 76.7008L441.087 75.5933L439.819 74.3398L438.411 72.9888L435.431 70.1227L434.03 68.8205L431.689 66.6906L430.556 65.6987L430.337 65.504L426.29 61.9685L423.487 59.6196L423.365 59.5162L419.745 56.5892L417.307 54.6906L414.869 52.8102L414.827 52.7798L414.705 52.6824L411.597 50.3883L407.032 47.1205L405.856 46.2929L403.949 44.9846L401.84 43.5789L401.176 43.1469L396.453 40.1043L391.577 37.1042L386.519 34.2198L383.076 32.3152L379.73 30.4896L379.535 30.3861L379.188 30.2036L379.096 30.1549L375.026 28.0616L374.3 27.7026L368.956 25.092L367.566 24.447L364.312 22.9682L360.418 21.2826L357.73 20.1386L355.152 19.098L354.799 18.9581L354.665 18.8972L353.799 18.5565L353.422 18.4104L353.141 18.3009L352.056 17.881L350.106 17.1447L345.786 15.5382L339.314 13.3353L332.86 11.309L332.336 11.1507L331.848 11.0108L328.929 10.1893L325.382 9.22171L322.408 8.45498V8.55234L320.373 7.94382L320.184 7.88905L319.538 7.73692L319.306 7.68215L317.112 7.17708L314.12 6.49553L313.974 6.45902H313.925L309.507 5.54624L308.288 5.315L300.53 3.93365L298.811 3.64764L291.486 2.57664H291.389H291.181L285.697 1.96812L282.26 1.6456L279.724 1.3596L278.792 1.29266H278.713L273.837 0.970143H273.728L268.852 0.732819H268.243L262.636 0.580688H257.627L253.507 0.629371H253.111H251.667H251.411L248.412 0.744992L245.493 0.872777H245.359L239.375 1.63343H239.302L238.692 1.76122L238.497 1.79773L237.772 1.95595H237.687L235.858 2.37583L235.688 2.41234L235.078 2.57056L232.641 3.22168L232.5 3.16083L232.433 3.26428L197.593 8.82618L197.203 8.91137L196.941 8.97222L183.668 12.2156V12.0818L183.271 12.313L183.07 12.3617V12.4043L124.627 39.088L123.055 39.0272L122.817 39.1732L119.197 41.5221L118.984 41.6621L115.022 44.2666L114.541 44.5952L109.909 47.7838L109.751 47.8934L107.265 49.7189L107.173 49.7859L107.002 49.9076L104.169 51.9887L101.006 54.3011L97.203 57.3437L96.7033 57.7514L92.4373 61.2383L88.9575 64.22L88.2994 64.8285L84.2223 68.4797L83.7165 68.9422L83.7957 68.8205L82.1564 70.3844L82.0589 70.4756L79.1885 73.1653L76.3425 75.928L73.0151 79.2992L72.5763 79.7556L68.9198 83.6319V83.6623L68.5785 84.0335L66.025 86.8449L65.3364 87.6238L61.8322 91.6401L61.7835 91.6949L58.7973 95.2669L58.4378 95.7172L55.1164 99.8551L55.0738 99.9038L52.9713 102.648L52.7336 102.959L52.5812 103.172L50.887 105.417L48.7114 108.381L48.2543 108.989L48.1264 109.172L45.2316 113.34L44.3784 114.545L43.9945 115.117L43.9335 115.208L42.7147 117.064V117.113V117.155L40.9352 119.93L40.6671 120.344L40.5635 120.508L39.1252 122.784L37.1812 125.936L34.7435 130.105L34.5546 130.44L31.9889 135.003L29.7158 139.263L29.533 139.622L27.1562 144.289L25.2426 148.239L24.8892 148.999L22.7013 153.764L21.836 155.718L21.0315 157.574L20.5501 158.73L18.3379 163.835L17.7955 165.204L17.1861 166.835L16.4243 168.88L14.5961 173.949L13.0786 178.415L12.8714 179.067L11.2625 184.178L10.9822 185.085L9.95227 188.645L9.76335 189.332L8.37388 194.505L7.1916 199.13L7.05753 199.738L5.88134 204.971L5.03425 209.231L4.97331 209.529L4.54062 211.781L3.88244 215.432L3.13895 220.069L3.04145 220.732L2.31014 226.045L2.23092 226.696V226.757L1.79823 230.481L1.69462 231.503L1.1949 236.73L1.06692 238.294L0.908477 240.418L0.804876 242.11L0.518448 247.489L0.353902 252.199V252.893L0.286865 258.308V258.917L0.323429 263.079V263.688L0.463593 268.726L0.847531 275.907L1.04864 278.755L1.0913 279.309V279.4L1.1888 280.617V280.702L1.22537 281.092L1.53618 284.238L1.62759 285.175L2.06028 289.276L2.27357 291.102L2.85252 295.361L2.90737 295.775L3.69352 300.887L3.724 301.069L4.57718 305.895L4.69297 306.503L5.68633 311.536V311.597L6.49076 315.248L8.09354 322.027L8.62983 324.12L9.23925 326.39L9.44645 327.528L10.9212 332.688L13.2736 340.112L13.7124 341.457V341.512L13.816 341.81V341.871L14.1634 342.881L15.8697 347.658L15.9733 347.938L17.893 352.989L19.3739 356.64V356.676L19.5019 356.987L20.5806 359.579L22.0432 362.974L22.6038 364.228L22.8659 364.794L22.9329 364.946L24.6637 368.652L26.4919 372.473V372.516L28.6615 376.818L29.4293 378.279L31.2576 381.76L33.5856 385.946L33.7745 386.281L36.3889 390.772L36.4194 390.82L39.046 395.111L39.2105 395.372L41.9468 399.662L45.6034 405.048L45.969 405.571L46.0056 405.632L47.0843 407.178L47.5962 407.914L47.907 408.358L48.5164 409.192L50.6128 412.058L51.0455 412.624L54.2267 416.81L57.1214 420.462L57.5358 420.961L60.9059 425.038L62.2832 426.662L63.8616 428.488L64.3857 429.097L67.9569 433.064L69.0234 434.22L71.394 436.721L71.6439 436.977L75.3675 440.792L75.4284 440.853L78.768 444.133L79.2616 444.596L83.2046 448.314H83.2351L83.3021 448.381L87.0683 451.776L87.2694 451.953L91.3891 455.525L91.4988 455.616L94.0889 457.752L97.136 460.235L99.9027 462.438L103.785 465.401L104.309 465.79L109.026 469.314L113.651 472.515L117.18 474.864L118.783 475.916L118.965 476.032L123.408 478.807L123.609 478.928L126.339 480.565L131.294 483.474L133.732 484.843L134.518 485.269L136.23 486.182L136.876 486.517L137.132 486.657L138.808 487.515L139.68 487.953L141.63 488.92L142.209 489.2L144.75 490.417L145.39 490.709L147.328 491.592L148.236 491.987L149.961 492.742L150.893 493.144L152.721 493.91L153.446 494.208H153.489L156.652 495.462L157.365 495.736L160.308 496.837L160.686 496.977L163.935 498.115L164.702 498.377L168.024 499.472L170.754 500.318L171.656 500.586L173.484 501.127L174.551 501.426L176.251 501.894L177.378 502.192L179.03 502.624L180.176 502.91L181.851 503.318L182.973 503.586L184.649 503.963L184.978 504.261V504.152L187.056 505.332L185.837 504.231L187.793 504.645L188.555 504.803L191.425 505.363C222.335 510.839 258.005 515.878 282.077 515.878H283.588L288.342 515.355L291.76 514.947L294.253 514.618H294.326L301.639 513.505H301.785L308.867 512.209L316.948 510.493L317.076 510.462L319.745 509.854L319.964 509.799L322.329 509.19L326.223 508.168L327.594 507.791L329.91 507.152L330.66 506.939L331.714 506.635L338.68 504.474L344.64 502.466L345.103 502.302L345.511 502.156L347.876 501.31L347.986 501.267L353.068 499.314L356.816 497.914L361.978 495.736L362.441 495.529L368.048 493.01L369.431 492.365L372.905 490.691L376.622 488.811L378.7 487.758L379.48 487.35L383.228 485.33L383.777 485.02L388.841 482.16L389.579 481.728L392.754 479.841L393.704 479.233L398.537 476.19L402.663 473.482L404.345 472.332L407.794 469.953H407.825L408.818 469.247L411.694 467.166L412.304 466.728L416.734 463.393L417.496 462.784L420.458 460.448L421.067 459.967L425.333 456.474L427.82 454.338L429.209 453.121L429.995 452.427L430.117 452.312L431.08 451.46L433.603 449.233L437.095 445.977L437.558 445.527L441.452 441.742L441.672 441.523L444.499 438.663L445.219 437.914L447.949 435.036L449.04 433.88L449.229 433.673L452.501 430.021L456.018 425.993L456.066 425.938L459.059 422.366L460.418 420.687L462.739 417.784L462.776 417.735L465.086 414.693L466.56 412.739L469.083 409.32L471.856 405.382L472.112 405.017L475.056 400.654L477.676 396.601L477.896 396.242L480.65 391.782L482.978 387.833L483.301 387.273L485.873 382.697L487.153 380.311L488.42 377.932L491.041 372.096L491.79 370.313L493.582 365.847L494.63 363.078L494.99 362.098L495.026 361.995L496.288 358.526L496.404 357.236L509.122 318.577L509.366 317.493L509.403 317.311L515.265 255.235L507.544 200.347ZM429.538 251.864L425.949 257.457L428.21 236.475V236.176L428.332 234.57L429.416 208.257V208.154L410.183 96.4596L410.725 97.1411L451.837 160.567L462.806 184.239V184.269L462.849 184.33L430.209 250.854L429.563 251.876L429.538 251.864ZM432.744 361.964L394.911 446.999L384.502 423.237L383.838 422.391L383.789 422.33L372.009 409.958L372.076 409.849L372.131 409.727L372.478 409.18H372.387L405.905 339.516L432.573 359.877L432.744 361.964ZM106.704 459.176L123.408 448.204L124.017 449.494L182.662 502.119L107.703 459.748L106.704 459.176ZM70.5652 345.522L69.9558 344.262L68.8832 342.09L68.4871 341.274L67.1159 338.481L66.9818 338.201L47.7241 286.678L47.4438 285.692L50.1131 276.716L68.9381 233.006L69.2245 232.471L83.552 269.408L83.2716 271.355V271.526V271.544L91.4135 381.2L72.5702 349.435L72.2655 348.826L71.2173 346.794L70.5652 345.522ZM37.9003 151.117L50.9967 132.898L37.4798 205.385L36.7241 205.543C34.5911 205.994 29.1856 207.107 23.7191 208.111C20.9889 208.616 18.2343 209.091 15.888 209.438C14.0733 209.74 12.2415 209.929 10.4032 210.004V210.004C10.1378 210.01 9.87234 209.99 9.611 209.943L37.0349 152.492L37.882 151.202L37.9003 151.117ZM52.5264 130.147L53.9951 126.782L54.7447 125.109L55.1286 124.263L69.3707 97.847L71.0954 95.1574L71.6012 94.3784L72.9298 92.3886L80.8522 81.4899L81.3215 80.8814L82.7293 79.0984L84.1126 77.3885L84.6855 76.6947L117.747 46.2686L112.957 53.5344L109.525 68.2971V70.2687L108.502 71.1329L106.247 73.0314L52.5081 130.141L52.5264 130.147ZM258.961 15.8424L332.506 54.9096L407.788 94.9139L359.29 97.348L327.93 101.157L305.381 103.853L305.424 103.756L305.052 103.859L270.809 36.6539L258.968 15.8424H258.961ZM409.397 95.559L409.44 95.9484L412.651 114.618L409.238 95.5164L409.397 95.559ZM428.807 208.312L427.777 234.546L427.655 236.14V236.432L425.284 258.156L396.361 184.318L396.215 184.026L395.606 182.852L386.464 165.74L386.568 165.655L386.44 165.563L404.82 117.788L407.124 105.971L408.903 96.843L428.807 208.312ZM310.841 478.649L338.704 453.231L338.899 453.018L340.49 451.302L341.056 450.693L342.348 449.263L343.171 448.338L344.238 447.121L345.249 445.971L346.133 444.955L347.26 443.634L348.01 442.752L349.229 441.316L349.881 440.525L351.1 439.015L351.709 438.291L352.964 436.715L353.483 436.064L354.775 434.415L355.201 433.867L356.56 432.09L356.834 431.731L358.321 429.76L371.643 410.512L383.308 422.768V422.804L383.917 423.608L394.448 447.638L310.841 478.649ZM371.259 409.952L357.852 429.352L356.365 431.324L356.097 431.683L354.732 433.46L354.305 434.001L353.013 435.65L352.495 436.301L351.276 437.871L350.667 438.596L349.448 440.105L348.796 440.896L347.577 442.332L346.834 443.214L345.706 444.541L344.823 445.563L343.817 446.719L342.751 447.936L341.922 448.861L340.624 450.291L340.057 450.9L338.473 452.616L338.284 452.823L309.97 478.624L312.755 470.573V454.417L312.676 454.028L312.609 453.73L305.625 435.669L298.464 424.198L299.573 423.924L307.319 421.983L331.83 416.555L355.232 412.356L356.377 412.174L356.816 412.113L371.259 409.952ZM180.316 397.508L162.173 326.007L222.555 299.329L222.378 299.755L223.091 299.177L242.684 323.919L243.787 325.928L180.809 397.612L180.316 397.508ZM38.1197 206.359L68.8832 231.813L68.7187 232.112L68.3896 232.72L49.5402 276.491L47.261 284.165L46.1701 274.879L38.1197 206.359ZM38.0587 205.519L44.6405 170.261L51.7524 132.192V132.162L64.9037 141.74L84.7038 152.547L85.0877 152.742L86.9769 153.679L87.4096 153.886L89.311 154.817L89.4207 154.872L115.358 166.878L109.818 173.231L69.2123 231.308L38.0587 205.519ZM109.465 71.1146L105.625 122.383L105.68 122.851L106.009 125.437L106.113 126.162L106.466 128.596L106.582 129.35L106.99 131.888L107.088 132.496L107.581 135.302L107.636 135.6L111.396 152.365L111.433 152.498L112.237 155.492L112.64 156.959L112.92 157.939L115.358 166.148L108.221 162.849L89.6827 154.281L89.5669 154.227L87.6716 153.302L87.2451 153.089L85.3498 152.152L84.9841 151.969L65.2084 141.174L52.0023 131.584L106.667 73.5L108.886 71.6197L109.465 71.1146ZM184.234 138.569L262.386 116.516L304.406 104.662L248.735 237.071L223.048 298.173L116.345 166.878L170.51 144.283L184.234 138.569ZM395.094 183.138L395.703 184.3L395.837 184.568L425.047 259.16V259.233L341.782 270.071H341.733L337.107 270.887L302.029 277.848L299.403 278.426L297.891 278.761L229.849 296.408L228.698 296.749L224.523 297.966L386.019 166.062L395.094 183.138ZM83.8689 271.428L84.0943 269.901L161.314 325.885L103.864 372.346L92.0473 381.9L83.8506 271.544L83.8689 271.428ZM84.198 269.225L84.5088 267.162L84.5453 266.901L115.973 167.389L187.397 255.254L222.664 298.641L161.869 325.502L84.198 269.225ZM223.889 297.747L305.058 104.675L385.568 165.661L223.889 297.747ZM223.652 298.921L228.85 297.37L230.002 297.029L298.025 279.382L299.531 279.047L302.157 278.475L337.217 271.526L341.836 270.71H341.873L424.754 259.921L366.25 335.414L244.549 325.094L244.213 325.471L243.196 323.609L223.652 298.921ZM244.799 325.696L365.805 335.932L298.013 423.449L244.524 326.025L244.799 325.696ZM298.013 423.431L365.805 335.95L298.013 423.431ZM404.223 117.588L385.94 165.15L305.71 104.407L359.339 97.9748L408.525 95.492L404.223 117.588ZM110.299 173.572L115.12 168.04L83.9542 266.743L83.9054 267.053L83.7348 268.167L69.6145 231.765L110.299 173.572ZM161.637 326.366L92.4983 382.295L161.637 326.366ZM161.637 326.366L179.664 397.399L92.4983 382.295L161.637 326.366ZM181.516 397.715L244.073 326.512L297.276 423.413L271.966 413.427L181.516 397.715ZM356.7 411.504L356.268 411.577L355.11 411.76L331.702 415.959L307.185 421.387L298.757 423.498L304.942 415.514L366.53 336.011L405.362 339.297L371.68 409.277L356.7 411.504ZM366.969 335.439L424.901 260.67L405.57 338.707L366.969 335.439ZM258.09 15.526L270.278 36.9521L298.958 93.1553L304.241 103.5L302.773 102.77L300.597 101.693L197.605 59.0598L258.09 15.526ZM196.947 59.6013L196.996 59.6622L197.087 59.5222L300.341 102.259L302.498 103.33L304.083 104.115L184.027 137.991L116.619 166.111L141.788 125.882L176.696 81.5386L178.75 79.2079L178.993 78.9341L187.629 69.4351L188.019 69.0213L190.03 66.8671L196.947 59.6013ZM189.585 66.4716L187.568 68.6257L187.184 69.0395L178.548 78.5386L178.311 78.8063L176.239 81.1552L141.301 125.535L115.955 166.026L141.288 125.529L115.955 166.026L113.517 157.823L113.243 156.843L112.835 155.377L112.036 152.383L112 152.255L108.24 135.496L108.173 135.235L107.673 132.435L107.575 131.827L107.167 129.289L107.051 128.541L106.698 126.107L106.594 125.377L106.265 122.784L106.216 122.377L110.086 70.6826L169.157 61.4391L196.179 59.5101L189.585 66.4716ZM9.64147 210.57C9.89207 210.601 10.1446 210.616 10.3971 210.612C12.6106 210.512 14.8153 210.268 16.9972 209.882C24.6454 208.665 35.4565 206.432 37.4676 206.006L46.81 285.589L13.1639 326.445C13.0359 321.516 12.3351 295.051 11.5794 268.593C11.1589 253.927 10.7262 239.256 10.3606 228.254C10.1717 222.777 10.0071 218.17 9.86085 214.963C9.79382 213.357 9.73288 212.091 9.67194 211.233C9.67194 210.971 9.64147 210.752 9.62928 210.57H9.64147ZM92.3276 382.94H92.4068L92.3642 382.873L154.684 393.687L179.804 398.044L179.914 398.457L123.585 447.249L92.3276 382.94ZM184.734 503.19L124.505 449.123L123.896 447.833L180.115 399.151L195.058 458.032L192.882 467.64L184.734 503.19ZM180.596 398.689L180.858 398.463L181.029 398.269L271.832 414.017L297.093 423.979L195.57 457.624L180.596 398.689ZM297.824 424.374L297.928 424.557L305.052 435.961L311.993 453.894L312.054 454.168L312.121 454.496V470.488L309.074 479.306L196.539 457.934L297.824 424.374ZM309.403 479.975L309.482 479.823L309.598 479.738L391.876 449.233L286.812 511.667L309.403 479.975ZM406.179 338.913L425.163 262.191L432.549 359.049L406.179 338.913ZM463.282 183.783L452.373 160.275L411.225 96.7882L410.829 96.2953L447.437 115.391L447.693 115.549L488.585 149.626L481.272 165.904L463.282 183.783ZM429.947 65.9604L430.166 66.1551L431.245 67.1105L433.585 69.2403L434.98 70.5426L437.93 73.3235L439.338 74.6745L440.605 75.8915L441.714 76.9929L441.775 77.0599L441.812 77.0964L445.554 80.924L446.309 81.7029L447.528 82.9991L449.21 84.8246L453.799 89.9727L456.237 92.7476L456.273 92.8024L458.285 95.2364L462.551 100.525L462.581 100.561L462.703 100.725L472.88 115.397L475.488 119.754L475.623 119.979L476.232 121.087L488.14 148.44L448.028 115.013L447.735 114.831L410.238 95.2669L423.73 84.4717L423.767 84.4352L424.248 83.9666L430.592 75.3134L430.678 75.0883L430.769 74.8509V74.8022L430.946 68.4493L430.861 68.2119L430.8 68.0537V67.999L429.276 65.358L429.947 65.9604ZM367.304 25.0007L368.694 25.6458L374.026 28.232L374.751 28.591L378.81 30.6722L378.908 30.7208L379.249 30.9034L379.419 30.9947L382.783 32.8202L386.221 34.7188L391.157 37.5971L396.032 40.5911L400.743 43.6337L401.401 44.0597L403.516 45.4775L405.417 46.7798L406.593 47.6134L411.158 50.8812L414.26 53.1693L414.388 53.2605H414.431L416.868 55.1409L419.306 57.0334L422.92 59.9604L423.042 60.0638L425.815 62.3823L425.93 62.504L428.283 64.9989L430.227 68.291L430.276 68.4249L430.318 68.5527L430.148 74.6866L430.074 74.8814L430.02 75.0274L423.749 83.5467L423.31 83.9788L409.903 94.701L409.293 88.8348V88.7679L409.226 88.3784L398.738 56.005L398.592 55.7433L398.013 54.7392L397.781 54.3498L397.239 53.4492L396.995 53.0475L396.428 52.1104L396.3 51.9218V51.8853L396.185 51.7818L365.445 24.1366L367.304 25.0007ZM331.635 11.6132L332.116 11.7532L332.64 11.9114L339.082 13.9256L345.554 16.1345L349.856 17.735L351.813 18.4713L352.891 18.8851L353.178 18.9946L353.55 19.1406L354.403 19.4753L363.209 23.5768L395.819 52.2808L395.916 52.4329L396.526 53.3579L396.776 53.7534L397.318 54.6601L397.55 55.0496L398.123 56.0537L398.238 56.2666L408.617 88.4697L408.672 88.9078V88.9748L409.281 94.348L409.202 94.2506V94.4028L409.037 94.2263L408.909 93.5082L408.812 93.989L331.629 11.595L331.635 11.6132ZM330.989 11.8201L391.419 76.3236L329.868 11.455L330.989 11.8201ZM298.69 4.244L300.384 4.52392L308.136 5.89918L309.354 6.13042L313.773 7.0432H313.809H313.955L316.942 7.72475L319.136 8.22982L319.367 8.28459L319.977 8.43672L320.159 8.48541L328.752 11.1264L405.807 92.3521L292.455 3.34947L298.69 4.244ZM282.235 2.23587L285.666 2.55231L291.151 3.16083H291.279L379.572 72.5568L406.015 93.3196L312.938 43.8223L258.791 15.0574L273.533 5.4367L278.908 1.92552L282.235 2.23587ZM257.676 1.18921H262.648L268.261 1.34134H268.871L273.795 1.57867H273.862L277.902 1.8525L272.283 5.50364L258.34 14.6011L257.121 11.4672L256.914 10.9378L256.871 10.8282L254.165 3.60505V3.53203L254.08 3.2947L254.043 3.17908L253.952 2.90524L253.659 1.19529L257.676 1.18921ZM235.243 3.23993L235.852 3.08172L236.017 3.03912L237.845 2.61924H237.93L238.656 2.46102L238.851 2.42451L239.46 2.29672H239.527L245.451 1.53606H245.56L248.479 1.41436L251.472 1.29874H251.722H253.038L253.355 3.12431V3.17299L253.446 3.44683L253.489 3.56245L253.568 3.79977V3.87888L256.292 11.096L256.335 11.2055L256.542 11.7349L257.596 14.4611L257.401 14.3516L257.456 14.455L233.5 3.7085L235.243 3.23993ZM232.726 4.00668L257.59 15.1609L220.001 42.2219L198.086 57.9522L232.726 4.00668ZM197.075 9.6416L197.331 9.58683L197.709 9.50164L231.988 4.02493L196.935 58.6216L185.155 44.1814L184.259 25.3719L183.649 12.8972L197.075 9.6416ZM184.576 44.4248L193.327 55.1591L196.374 58.9015L169.133 60.8488L110.671 69.9767L140.143 38.9724L140.399 38.7594L142.434 37.0738L142.696 36.8608L162.728 25.092L183.07 13.1649L184.576 44.4248ZM142.355 36.374L142.056 36.6174L140.021 38.3091L139.753 38.5404L110.171 69.6602V68.3884L113.523 53.7839L118.874 45.6662L124.865 39.727L178.091 15.4226L142.355 36.374ZM84.6063 68.9057L88.6772 65.2545L89.3354 64.646L92.8091 61.6703L97.075 58.1896L97.5747 57.7819L101.371 54.794L104.516 52.4269L107.344 50.3457L107.514 50.2179L107.606 50.151L110.086 48.3558L110.251 48.2402L114.882 45.0576L115.358 44.729L119.319 42.1306L119.526 41.9907L123.103 39.7331L123.183 39.6844L123.902 39.7148L84.198 76.2688L83.5885 76.999L82.2052 78.715L80.7974 80.498L80.3342 81.1065L72.4118 92.0295L71.0832 94.0194L70.5713 94.7983L68.8406 97.5062L54.5436 123.995L54.1535 124.859L53.4039 126.539L52.2461 129.204L54.1596 117.588L54.312 116.979L54.4399 116.456L82.5038 70.9016L84.6063 68.9057ZM44.5978 115.293L45.6826 113.711L48.5773 109.543L48.7114 109.36L49.1563 108.752L51.338 105.788L52.9591 103.634L53.1175 103.427L53.3552 103.117L55.4516 100.366L55.4882 100.324L58.8095 96.1857L59.1691 95.7354L62.1552 92.1695L62.204 92.1147L65.702 88.0985L66.3846 87.3196L68.9381 84.5082L69.2854 84.137L72.942 80.2546L73.3807 79.7982L76.7143 76.427L79.5603 73.6643L80.7121 72.569L53.8183 116.218V116.267L53.6782 116.833L53.5258 117.478L51.2954 131.066L48.2482 128.486V128.456L44.5978 115.293ZM0.914567 256.087L0.951131 253.002V252.321L1.10959 247.617L1.40211 242.231L1.50571 240.546L1.66415 238.422L1.79823 236.864L2.29795 231.643L2.39545 230.627L2.82815 226.909V226.848L2.90737 226.197L3.63868 220.89L3.73619 220.233L4.47358 215.596L5.13785 211.945L5.57054 209.7L5.63148 209.401L6.47858 205.142L7.64866 199.915L7.78274 199.336L8.91626 194.754V194.724L10.3118 189.551L10.5007 188.87L11.5307 185.31L11.8049 184.403L13.4138 179.298L13.621 178.647L15.1323 174.186L16.9606 169.123L17.7224 167.079L18.3318 165.46L18.8742 164.091L20.9279 159.089L21.4094 157.927L22.2077 156.101L23.0792 154.148L25.267 149.377L25.6205 148.616L27.5401 144.667L29.9108 140.018L30.0936 139.659L32.3668 135.399L34.9324 130.835L35.1152 130.513L37.5529 126.338L39.4909 123.186L40.9291 120.916L41.1363 120.63L41.3984 120.216L43.2266 117.405V117.362L44.1712 115.938L47.7546 128.717L47.8338 128.79L47.9131 128.863L51.1186 131.59H51.1552L37.431 150.679L37.3762 150.764L36.5047 152.091L8.95891 209.779V209.827L8.91016 209.998L8.39216 211.72L1.12177 251.986L0.914567 256.087ZM11.5672 332.5L10.0559 327.339L9.83039 326.536L9.22097 324.26L8.69077 322.179L7.088 315.4L6.28966 311.749V311.706L5.2963 306.674L5.18051 306.065L4.33342 301.246L4.30294 301.057L3.51679 295.958L3.46194 295.544L2.88909 291.284L2.67579 289.489L2.2492 285.394L2.15169 284.457L1.84698 281.317V280.927V280.842L1.74338 279.625L1.52399 272.365L1.28022 261.887V261.807L1.70072 252.126L8.96501 211.963L9.09299 211.531C9.16002 212.7 9.25144 214.525 9.34285 216.862C9.85477 229.416 10.6714 257.024 11.3539 281.511C11.6952 293.749 12.006 305.207 12.2315 313.599C12.4387 321.285 12.5667 326.378 12.5911 327.218V327.327V327.376L13.0298 337.222L11.5672 332.5ZM22.7074 362.822L21.257 359.433L20.1783 356.84L20.0504 356.53V356.494L18.5878 352.849V352.818L16.6681 347.761L16.5706 347.487L14.8642 342.717L14.5168 341.7V341.646L14.4193 341.366L13.8099 338.256L13.2675 327.37L46.9868 286.422L47.0782 287.189L47.2 286.769V286.842L66.476 338.414L66.6162 338.719L67.9691 341.53L68.3652 342.346L69.4378 344.518L70.0472 345.778L70.6993 347.074L71.7475 349.112L72.0644 349.721L91.1697 381.973L23.4631 364.49L22.7074 362.822ZM42.6477 399.547L39.9175 395.287L39.7529 395.025L37.1324 390.766V390.717L34.518 386.226L34.323 385.891L31.995 381.705L30.1667 378.23L29.3989 376.764L27.2354 372.467V372.431L25.4072 368.609L23.8897 365.354L48.7053 371.774L91.1088 382.624L91.06 382.666L91.4866 382.739V383.08L91.639 382.958L123.116 447.65L106.204 458.817L47.6998 406.94L46.6577 405.455L42.6477 399.547ZM182.126 502.783L180.456 502.375L179.31 502.089L177.659 501.657L176.531 501.359L174.837 500.89L173.771 500.592L171.942 500.05L171.046 499.789L168.31 498.943L164.995 497.854L164.233 497.598L160.985 496.46L160.613 496.32L157.67 495.219L156.957 494.945L153.8 493.691H153.757L153.032 493.393L151.204 492.632L150.265 492.231L148.534 491.476L147.639 491.081L145.701 490.204L145.061 489.906L142.519 488.689L141.947 488.403L139.99 487.436L139.119 486.991L137.425 486.14L137.163 486.006L136.517 485.665L134.804 484.746L134.012 484.314L131.574 482.945L126.626 480.036L123.896 478.393L123.694 478.265L119.294 475.502L119.142 475.399L117.533 474.352L114.005 472.003L109.391 468.815L104.912 465.553L104.388 465.17L100.512 462.212L97.7454 460.016L94.6983 457.539L92.1082 455.403L91.9985 455.312L87.8849 451.746L87.6838 451.569L83.9176 448.174L83.8445 448.107L79.9076 444.395L79.414 443.926L76.0805 440.652L76.0195 440.592L72.2899 436.776L72.0461 436.521L69.6816 434.026L68.6212 432.869L65.0561 428.908L64.532 428.299L62.9536 426.474L61.5702 424.849L58.2001 420.772L57.7857 420.267L54.897 416.616L51.7158 412.435L51.2832 411.869L49.2782 409.119L106.027 459.444L106.247 459.584L107.386 460.259L182.955 502.983L182.114 502.789L182.126 502.783ZM283.442 515.318H282.223C258.23 515.318 222.573 510.298 191.681 504.815L188.817 504.255L188.061 504.097L186.02 503.671L185.283 503.507L192.675 471.036L195.588 458.36L308.672 479.823L308.142 480.31L308.55 480.152L285.514 512.44L283.606 513.572L197.227 458.969L196.904 459.486L283.594 514.314L284.642 513.706L283.442 515.318ZM329.935 506.543L327.613 507.152L326.248 507.529L322.347 508.558L319.977 509.166L319.757 509.221L317.088 509.829H316.966L308.903 511.539L301.822 512.835H301.7L294.387 513.955H294.32L291.834 514.284L288.994 514.624V514.588L288.092 514.704L285.337 515.032L284.21 515.16L285.904 512.787L394.1 448.588L372.082 488.592L330.672 506.355L329.935 506.543ZM427.509 453.833L425.022 455.969L420.756 459.456L420.147 459.936L417.179 462.279L416.43 462.851L411.993 466.198L411.384 466.636L408.55 468.705L407.556 469.411L404.101 471.791L402.395 472.965L398.257 475.667L393.418 478.709L392.467 479.318L389.298 481.204L388.561 481.63L383.503 484.49L382.954 484.795L379.206 486.815L378.432 487.223L376.36 488.275L372.661 490.119L369.187 491.799L367.816 492.407L362.209 494.933L361.746 495.14L356.591 497.312L353.044 498.712L347.973 500.659L347.858 500.701L345.499 501.547L345.091 501.693L344.628 501.858L338.661 503.866L336.023 504.687L372.484 489.048L394.85 448.417V448.484L395.045 448.046L421.762 449.342L422.633 449.458L422.859 449.488L423.468 449.579L423.743 449.622L424.352 449.719L424.626 449.762L425.236 449.872H425.406L425.955 449.981L426.132 450.024L427.308 450.298H427.424L427.887 450.431H427.948L428.362 450.571L428.588 450.65L428.685 450.687L429.977 451.399V451.484L429.91 451.63L429.636 451.874L429.508 451.989L427.509 453.833ZM491.303 369.985L490.553 371.768L487.939 377.591L486.677 379.97L485.398 382.35L482.832 386.926L482.509 387.486L480.187 391.423L477.433 395.883L477.219 396.236L474.605 400.289L471.667 404.646L471.418 405.011L468.645 408.942L466.134 412.362L464.683 414.322L462.374 417.364L462.331 417.419L460.009 420.316L458.656 422.001L455.652 425.5L455.603 425.561L452.093 429.589L448.839 433.228L448.65 433.429L447.565 434.585L444.829 437.464L444.109 438.212L441.282 441.072L441.056 441.291L437.168 445.076L436.705 445.521L433.207 448.776L430.733 451.009L430.611 451.125L428.984 450.231L428.85 450.182L428.612 450.097L428.179 449.957H428.112L427.649 449.829H427.527L426.308 449.549L426.132 449.512L425.583 449.403L425.406 449.366L424.797 449.263L424.523 449.214L423.913 449.123L423.639 449.08L423.03 448.989L422.804 448.953L421.927 448.843L395.977 447.577L433.847 424.733L466.408 399.175L466.756 398.853L467.438 398.214L491.236 369.912L491.778 369.017L491.303 369.985ZM490.693 369.486L466.926 397.727L466.274 398.336L465.951 398.64L433.432 424.155L395.569 446.993L433.353 362.086L433.231 360.48L466.835 395.774L467.28 395.354L433.243 359.64L433.158 359.573L425.62 260.286V260.213L483.649 310.678L494.405 361.514L493.095 365.488L490.693 369.486ZM495.904 357.017L494.807 360.358L484.228 310.349L425.79 259.532L426.101 259.136H425.79L425.833 258.795L430.099 252.175L430.751 251.152L463.239 184.908L467.962 191.894L503.046 277.221L495.904 357.017ZM508.909 317.098L508.873 317.262L508.635 318.315L496.745 354.461L503.662 277.13L468.498 191.614L463.623 184.342L481.778 166.269L488.932 150.369L506.679 199.44L506.77 199.793L506.947 200.487L514.65 255.254L508.909 317.098Z" fill="#A1E1F7"/>
</svg>
