{
  "accessors": [
    {
      "bufferView": 0,
      "byteOffset": 0,
      "componentType": 5123,
      "count": 2880,
      "type": "SCALAR",
      "max": [2879],
      "min": [0]
    },
    {
      "bufferView": 1,
      "byteOffset": 0,
      "componentType": 5126,
      "count": 2880,
      "type": "VEC3",
      "max": [9.5, 9.5, 9.5],
      "min": [-9.5, -9.5, -9.5],
      "name": "POSITION"
    },
    {
      "bufferView": 1,
      "byteOffset": 12,
      "componentType": 5126,
      "count": 2880,
      "type": "VEC3",
      "max": [1.0000042915344238, 1.0000044107437134, 1.0000044107437134],
      "min": [-1.0000044107437134, -1.0000044107437134, -1.0000044107437134],
      "name": "NORMAL"
    },
    {
      "bufferView": 1,
      "byteOffset": 24,
      "componentType": 5126,
      "count": 2880,
      "type": "VEC2",
      "max": [1.000000238418579, 1.1920928955078125e-7],
      "min": [0, -1],
      "name": "TEXCOORD_0"
    }
  ],
  "asset": { "generator": "Aspose.3D 22.10", "version": "2.0" },
  "buffers": [
    {
      "uri": "data:application/octet-stream;base64,",
      "byteLength": 97928
    }
  ],
  "bufferViews": [
    { "buffer": 0, "byteOffset": 0, "byteLength": 5760, "target": 34963 },
    {
      "buffer": 0,
      "byteOffset": 5764,
      "byteLength": 92160,
      "byteStride": 32,
      "target": 34962
    }
  ],
  "materials": [
    {
      "name": "Material #27",
      "pbrMetallicRoughness": {
        "baseColorFactor": [0.5, 0.5, 0.5, 1],
        "metallicFactor": 0,
        "roughnessFactor": 0
      },
      "emissiveFactor": [0, 0, 0],
      "alphaMode": "OPAQUE",
      "doubleSided": false
    }
  ],
  "meshes": [
    {
      "primitives": [
        {
          "attributes": { "POSITION": 1, "NORMAL": 2, "TEXCOORD_0": 3 },
          "indices": 0,
          "material": 0,
          "mode": 4
        }
      ],
      "name": ""
    }
  ],
  "nodes": [
    {
      "matrix": [
        0.01999999999999993, -1.1920928955078084e-9, -1.1920928955078084e-9, 0,
        -1.1920928955078105e-9, 1.224646799147351e-18, -0.019999999999999966, 0,
        1.1920928955078063e-9, 0.019999999999999966, -6.98296267768623e-17, 0,
        -0.027253150939941406, 27.957923889160156, -75.21004486083984, 1
      ],
      "mesh": 0,
      "name": "Sphere008"
    }
  ],
  "scene": 0,
  "scenes": [{ "nodes": [0] }]
}
