<svg id="eve4kjUaAM71" xmlns="http://www.w3.org/2000/svg" xmlns:xlink="http://www.w3.org/1999/xlink" viewBox="0 0 70 70" shape-rendering="geometricPrecision" text-rendering="geometricPrecision">
<style><![CDATA[
#eve4kjUaAM74_to {animation: eve4kjUaAM74_to__to 2000ms linear infinite normal forwards}@keyframes eve4kjUaAM74_to__to { 0% {transform: translate(17.475225px,23.44591px)} 50% {transform: translate(21.324776px,23.44591px)} 100% {transform: translate(17.522085px,23.44591px)}} #eve4kjUaAM75_to {animation: eve4kjUaAM75_to__to 2000ms linear infinite normal forwards}@keyframes eve4kjUaAM75_to__to { 0% {transform: translate(14.286187px,31.165493px)} 50% {transform: translate(24.551655px,31.165493px)} 100% {transform: translate(14.285233px,31.165493px)}} #eve4kjUaAM76_to {animation: eve4kjUaAM76_to__to 2000ms linear infinite normal forwards}@keyframes eve4kjUaAM76_to__to { 0% {transform: translate(13.648841px,38.834976px)} 50% {transform: translate(22.987565px,38.834976px)} 100% {transform: translate(13.648841px,38.834976px)}} #eve4kjUaAM77_tr {animation: eve4kjUaAM77_tr__tr 2000ms linear infinite normal forwards}@keyframes eve4kjUaAM77_tr__tr { 0% {transform: translate(20.139978px,48.560269px) rotate(0deg)} 100% {transform: translate(20.139978px,48.560269px) rotate(720deg)}} #eve4kjUaAM710_tr {animation: eve4kjUaAM710_tr__tr 2000ms linear infinite normal forwards}@keyframes eve4kjUaAM710_tr__tr { 0% {transform: translate(46.916683px,48.560268px) rotate(0deg)} 100% {transform: translate(46.916683px,48.560268px) rotate(720deg)}}
]]></style>
<g transform="translate(-4.005382 0.000001)"><path d="M6.57539,0.699654C5.59453,1.18403,5.20703,2.37075,5.71562,3.3395c.15743.30273.43594.6539.61758.78711.33907.25429.41172.25429,16.0207.29062l15.6695.02422.0243,7.18085.0363,7.193.339.4359c.654.8477.1938.8113,8.8883.8113h7.8469l1.4289,1.8286l1.4168,1.8285v5.0133v5.0253l-1.768-.0363-1.7679-.0363-.2664-.7387c-.4239-1.1504-.884-1.8406-1.877-2.8457-3.0516-3.0515-7.9801-3.0515-11.0316.0121-.9325.9203-1.6348,2.0465-1.9496,3.1121l-.1454.5207h-5.7156-5.7035l-.2059-.6418c-.4843-1.5136-1.9496-3.3421-3.3785-4.1777-2.3008-1.3684-5.098-1.4652-7.5925-.2664-1.7317.8355-3.4391,2.7852-3.9477,4.5289l-.1453.4965-2.89416.0605c-2.80937.0606-2.90625.0727-3.30586.3512-.44804.327-.84765,1.0899-.85976,1.6469c0,.6055.48437,1.4168,1.0293,1.7195.46015.2664.61757.2785,3.30585.2785c2.54293,0,2.80943.0242,2.80943.2059c0,.109.2179.666.4964,1.223c1.0051,2.0828,3.1364,3.7297,5.4371,4.2141c1.8407.3875,4.0809,0,5.7278-1.0051c1.4047-.8476,2.6519-2.3613,3.2332-3.8992l.2664-.7387h5.7277h5.7156l.2665.7266c.3269.8961,1.2957,2.3613,1.9617,2.9668c1.3925,1.2473,3.1121,1.9738,5.0133,2.0828c1.4167.0848,2.5914-.1695,3.9234-.8234c1.7316-.8598,3.4027-2.761,3.8992-4.4442l.1453-.5086h3.0274c2.7851,0,3.0757-.0242,3.5359-.2422.3148-.1574.5934-.4117.7629-.7144C62,36.3133,62,36.2891,62,29.3625v-6.9507l-.3512-.545c-.1937-.2906-1.0898-1.4894-1.998-2.6519l-1.6469-2.1192-3.0273-6.0062c-1.659-3.29375-3.1243-6.09102-3.2575-6.21211-.557-.5086-.9687-.54492-5.425-.55704h-4.2746v-1.25937c0-1.36836-.1453-1.75586-.884-2.300779l-.339-.2543-16.8563-.036327-16.85622-.02422-.50859.2543ZM51.0168,12.252l1.9012,3.8144h-5.4492-5.4493v-3.8144-3.81446h3.5481h3.5359L51.0168,12.252ZM20.8523,31.9418c1.211.2543,2.2766,1.102,2.7852,2.2282.3633.8234.3754,2.1797.0121,2.991-1.1262,2.4945-4.2988,3.1-6.2121,1.1867-2.107-2.107-1.1262-5.5824,1.8043-6.3695.7144-.1938.8355-.1938,1.6105-.0364Zm27.67.3633c2.2765,1.102,2.8093,4.1778,1.0535,5.9821-1.5258,1.5742-3.8266,1.5984-5.3887.0726-1.223-1.2109-1.5137-2.7488-.8113-4.2504.9445-2.0222,3.1242-2.7851,5.1465-1.8043Z" transform="translate(3.993664 13.010243)"/><g id="eve4kjUaAM74_to" transform="translate(17.475225,23.44591)"><path d="M4.28491,8.66756c-1.40469.6418-1.52578,2.74884-.18164,3.49964l.47226.2664h8.91247c9.8328,0,9.3243.0363,9.9297-.7508.7871-1.0535.3149-2.63985-.9324-3.11211-.2301-.09688-3.1848-.13321-9.0215-.13321-8.21014,0-8.70663.01211-9.17889.23008Z" transform="translate(-13.481562,-10.435669)"/></g><g id="eve4kjUaAM75_to" transform="translate(14.286187,31.165493)"><path d="M0.992509,16.3934c-.617578.3027-.920312.8234-.968749,1.6711-.036329.6054,0,.7871.242187,1.1382.145312.2301.435937.5328.617578.6661.339065.2542.399605.2542,9.408975.2542s9.0699,0,9.409-.2542c.1816-.1333.4723-.436.6176-.6661.2422-.3511.2785-.5328.2422-1.1382-.0485-.8598-.3633-1.3805-.993-1.6832-.3633-.1696-1.3442-.1938-9.3-.1938-7.93165,0-8.92462.0242-9.275791.2059Z" transform="translate(-10.292524,-18.15525)"/></g><g id="eve4kjUaAM76_to" transform="translate(13.648841,38.834976)"><path d="M4.28477,24.0465c-.75079.339-1.07774.884-1.07774,1.7922c0,.8355.20586,1.223.9082,1.6953.39961.2785.41172.2785,5.48555.2785c4.95272,0,5.08592-.0121,5.53402-.2543c1.2109-.6781,1.3078-2.4703.1695-3.3301l-.448-.3511-5.03755-.0243c-4.71055-.0363-5.07383-.0242-5.53398.1938Z" transform="translate(-9.655179,-25.824734)"/></g></g><g id="eve4kjUaAM77_tr" transform="translate(20.139978,48.560269) rotate(0)"><g transform="translate(-20.139978,-48.560269)"><line x1="-3.971368" y1="0" x2="3.971368" y2="0" transform="matrix(1.059999 0 0 1 20.139978 48.560269)" fill="none" stroke="#000" stroke-width="0.7"/><line x1="-3.971368" y1="0" x2="3.971368" y2="0" transform="matrix(0 1.059999-1 0 20.139978 48.560269)" fill="none" stroke="#000" stroke-width="0.7"/></g></g><g id="eve4kjUaAM710_tr" transform="translate(46.916683,48.560268) rotate(0)"><g transform="translate(-20.139978,-48.560269)"><line x1="-3.971368" y1="0" x2="3.971368" y2="0" transform="matrix(1.059999 0 0 1 20.139978 48.560269)" fill="none" stroke="#000" stroke-width="0.7"/><line x1="-3.971368" y1="0" x2="3.971368" y2="0" transform="matrix(0 1.059999-1 0 20.139978 48.560269)" fill="none" stroke="#000" stroke-width="0.7"/></g></g></svg>
