<svg id="efdkn1a7VSF1" xmlns="http://www.w3.org/2000/svg" xmlns:xlink="http://www.w3.org/1999/xlink" viewBox="0 0 62 59" shape-rendering="geometricPrecision" text-rendering="geometricPrecision">
<style><![CDATA[
#efdkn1a7VSF3 {animation: efdkn1a7VSF3_c_o 2000ms linear infinite normal forwards}@keyframes efdkn1a7VSF3_c_o { 0% {opacity: 0.1} 20% {opacity: 1} 60% {opacity: 0.1} 100% {opacity: 0.1}} #efdkn1a7VSF4 {animation: efdkn1a7VSF4_c_o 2000ms linear infinite normal forwards}@keyframes efdkn1a7VSF4_c_o { 0% {opacity: 0.1} 40% {opacity: 1} 80% {opacity: 0.1} 100% {opacity: 0.1}} #efdkn1a7VSF5 {animation: efdkn1a7VSF5_c_o 2000ms linear infinite normal forwards}@keyframes efdkn1a7VSF5_c_o { 0% {opacity: 0.1} 60% {opacity: 1} 100% {opacity: 0.1}} #efdkn1a7VSF7 {animation: efdkn1a7VSF7_c_o 2000ms linear infinite normal forwards}@keyframes efdkn1a7VSF7_c_o { 0% {opacity: 0.1} 20% {opacity: 1} 60% {opacity: 0.1} 100% {opacity: 0.1}} #efdkn1a7VSF8 {animation: efdkn1a7VSF8_c_o 2000ms linear infinite normal forwards}@keyframes efdkn1a7VSF8_c_o { 0% {opacity: 0.1} 40% {opacity: 1} 80% {opacity: 0.1} 100% {opacity: 0.1}} #efdkn1a7VSF9 {animation: efdkn1a7VSF9_c_o 2000ms linear infinite normal forwards}@keyframes efdkn1a7VSF9_c_o { 0% {opacity: 0.1} 60% {opacity: 1} 100% {opacity: 0.1}} #efdkn1a7VSF11_tr {animation: efdkn1a7VSF11_tr__tr 2000ms linear infinite normal forwards}@keyframes efdkn1a7VSF11_tr__tr { 0% {transform: translate(35.1455px,37.241285px) rotate(0deg)} 100% {transform: translate(35.1455px,37.241285px) rotate(180deg)}}
]]></style>
<path d="M2.8457,0.228077C1.69531,0.591358,0.666016,1.56011,0.242188,2.68628C0,3.32808,0,3.60659,0,24.8828c0,21.4336,0,21.5547.254297,22.2086.314844.8718,1.126173,1.7437,2.010153,2.1918.65391.339.79922.3632,2.37344.3996l1.65899.0484v-1.0898-1.0899l-1.44102-.0484c-1.59844-.0364-1.86484-.1453-2.40977-.9446l-.2664-.3996v-21.2761-21.27621l.27851-.3996c.14532-.21798.42383-.52071.60547-.65391l.33906-.2543L26.7254,2.26245c25.9746-.02421,23.7828-.09687,24.473.79922.3028.39961.327.5207.3633,1.86484l.0485,1.42891h1.0898h1.0898l-.0484-1.61055c-.0363-1.4289-.0726-1.67109-.3512-2.27656-.4117-.87187-1.1625-1.622653-2.0343-2.034373l-.6782-.314842-23.6738-.02422c-18.76952-.012111-23.7707.012108-24.1582.133202Z"/><path id="efdkn1a7VSF3" d="M4.11719,5.26562v1.08985h1.08984h1.08985v-1.08985-1.08984h-1.08985-1.08984v1.08984Z" opacity="0.1"/><path id="efdkn1a7VSF4" d="M8.23438,5.26562v1.08985h1.08984h1.08988v-1.08985-1.08984h-1.08988-1.08984v1.08984Z" opacity="0.1"/><path id="efdkn1a7VSF5" d="M12.3516,5.26562v1.08985h1.0898h1.0898v-1.08985-1.08984h-1.0898-1.0898v1.08984Z" opacity="0.1"/><path d="M11.2997,8.43828c-.6418.14531-1.71954.85977-2.20391,1.46523-.20586.26639-.47227.76289-.61758,1.13829-.24219.6539-.24219.7387-.21797,22.2934l.03633,21.6394.36328.7024c.43594.8839,1.30781,1.6832,2.21605,2.0464l.6902.2786h23.5527h23.5528l.7265-.2907c.993-.3996,1.9981-1.3926,2.3493-2.3492l.2542-.7023-.0242-21.7-.0363-21.7-.3027-.5934c-.4239-.83554-1.211-1.61054-2.0344-1.98593l-.6902-.32696L35.361,8.3414c-14.5797-.0121-23.7465.02422-24.0613.09688ZM58.7321,10.7391c.2906.1574.6418.4359.775.6175.2543.3391.2543.3633.2906,21.6637l.0243,21.3125-.2543.4602c-.1453.2543-.4844.5812-.7629.7386l-.4965.2907h-23.0684c-12.6906,0-23.2136-.0364-23.3953-.0848-.4601-.1332-1.0656-.6902-1.2594-1.1504-.1453-.3269-.1695-3.9355-.1695-21.4457v-21.0582l.2785-.5207c.1938-.3633.4481-.6176.8114-.8113l.5207-.2785h23.0804h23.0926l.5328.2664Z"/><path id="efdkn1a7VSF7" d="M12.3516,13.5v1.0898h1.0898h1.0898v-1.0898-1.0898h-1.0898-1.0898v1.0898Z" opacity="0.1"/><path id="efdkn1a7VSF8" d="M16.4688,13.5v1.0898h1.0898h1.0898v-1.0898-1.0898h-1.0898-1.0898v1.0898Z" opacity="0.1"/><path id="efdkn1a7VSF9" d="M20.5859,13.5v1.0898h1.0899h1.0898v-1.0898-1.0898h-1.0898-1.0899v1.0898Z" opacity="0.1"/><path d="M12.3516,17.6172v1.0898h22.7656h22.7656v-1.0898-1.0899h-22.7656-22.7656v1.0899Z"/><g id="efdkn1a7VSF11_tr" transform="translate(35.1455,37.241285) rotate(0)"><path d="M31.7852,20.7293c-.1332.0363-.3633.1695-.5086.3148-.2664.2301-.2786.3391-.2786,1.8406v1.5985l-.5085.1574c-.2907.0847-.7387.2543-.993.3875l-.4723.2422-1.1019-1.102c-1.0172-1.0172-1.1383-1.1019-1.5864-1.1019-.4601,0-.5691.0847-2.9304,2.4582-2.4461,2.434-2.4582,2.4582-2.4582,2.9789c0,.4965.0605.5812,1.0293,1.5742.5691.5812,1.0293,1.1141,1.0293,1.1746s-.1575.4844-.3512.9566l-.3391.8477-1.5742.0363c-1.5137.0242-1.5863.0485-1.8648.3391l-.2907.3148v3.5723v3.5723l.3391.2906c.3148.2785.4238.2906,1.8527.2906h1.5137l.1816.4481c.0969.2543.2786.6781.3997.9445l.23.4844-1.0777,1.1019c-1.0172,1.0414-1.0777,1.1383-1.0777,1.6227c0,.5086.0363.557,2.2765,2.8094c1.2473,1.2593,2.4098,2.3734,2.5914,2.4703.666.3511.9082.2422,2.0828-.9203l1.1141-1.0899.993.3996.9929.3875v1.5863c0,2.2766-.339,2.1071,4.1293,2.1071c2.7247-.0121,3.6086-.0485,3.7661-.1696.3511-.2664.4601-.7628.4601-2.1796v-1.3563l.9324-.3875.9325-.3754l1.114,1.0778c1.659,1.6105,1.4531,1.6589,4.3836-1.2352c1.2836-1.2836,2.4219-2.4945,2.5309-2.6883.2785-.5449.109-.8961-1.0172-2.0222l-1.0293-1.0536.3633-.9445.3633-.9566l1.3804-.0243c1.6348-.0363,1.8285-.0847,2.1555-.4238.2301-.2543.2422-.4117.2422-3.8023v-3.5239l-.3149-.3269c-.3148-.3027-.3632-.3149-1.8648-.3149h-1.5379l-.3996-.9808-.3875-.9809l1.0656-1.0777c.993-1.0051,1.0778-1.1141,1.0778-1.5621c0-.4844-.0727-.5692-2.4946-2.9668-3.0879-3.0879-2.8578-3.0152-4.5289-1.3805l-1.1262,1.102-.4601-.2422c-.2664-.1332-.6781-.3028-.9203-.3754l-.4602-.1574v-1.3805c0-1.659-.1453-2.1312-.7265-2.3371-.3997-.1332-6.309-.1695-6.8418-.0484Zm5.3886,3.548c0,1.3684.0242,1.4773.2785,1.7438.1575.1574.6539.3996,1.1262.557.4602.1574,1.1988.4601,1.6469.6781c1.2715.6418,1.4894.5934,2.6762-.557l1.005-.9567l1.3805,1.3805l1.3805,1.3805-.9203.9566c-.5086.5207-.9688,1.102-1.0172,1.2836-.0606.2543.0363.5813.4117,1.3805.2664.5812.6055,1.4168.7508,1.8527.3754,1.1988.4722,1.2473,2.1918,1.2957l1.441.0485v1.9859v1.9859h-1.3805c-1.6347,0-1.8769.1211-2.1918,1.1262-.109.3391-.448,1.1625-.7508,1.8043-.6902,1.5137-.666,1.6348.545,2.9062l.9203.9567-1.3805,1.3805-1.3805,1.3804-.9929-.9566c-1.1746-1.1504-1.4047-1.1988-2.6883-.557-.4481.2179-1.1867.5207-1.659.6781-1.2957.4117-1.3926.5691-1.3926,2.2523v1.3805h-1.9859-1.9859l-.0364-1.3805c-.0605-1.6347-.1695-1.8285-1.2715-2.1797-.3754-.1211-1.114-.4238-1.6589-.6902-.6297-.3027-1.1504-.4723-1.4532-.4723-.4359,0-.5691.0969-1.4652.9688l-.993.9566-1.3804-1.3804-1.3926-1.3926.8719-.8719c1.3078-1.3441,1.3441-1.4895.7144-2.7367-.218-.4481-.5328-1.1867-.6781-1.659-.1574-.4844-.4238-.993-.6176-1.1746-.3269-.327-.3633-.3391-1.7316-.3391h-1.4047v-1.9859-1.9859l1.441-.0485c1.6711-.0484,1.8164-.1211,2.1434-1.114.1089-.3391.4359-1.1504.7386-1.8043.7145-1.5379.6903-1.6711-.5449-2.9063l-.9324-.9324l1.3926-1.3926l1.3804-1.3805l1.0051.9567c1.1867,1.1504,1.4047,1.1988,2.6762.557.448-.218,1.1867-.5207,1.6347-.6781.4602-.1453.9688-.3875,1.1504-.5449.3149-.2664.327-.327.3754-1.7438l.0364-1.4652h1.9859h1.9859v1.4531Z" transform="translate(-35.1455,-37.241285)"/></g><path d="M33.8204,30.0899c-1.4894.2664-2.9183,1.0656-3.9961,2.2281-2.1312,2.2645-2.5671,5.6793-1.1019,8.4645.557,1.0535,1.998,2.4582,3.0152,2.9547c1.2715.6175,2.0828.7992,3.4391.7992c2.1676-.0242,3.875-.775,5.3402-2.3735c2.5914-2.8336,2.4824-7.3382-.2422-10.0144-.8234-.8235-1.9496-1.5137-2.9668-1.8285-.9203-.2785-2.5914-.3875-3.4875-.2301Zm2.7489,2.325c2.2523.6781,3.7418,2.8094,3.6086,5.1828-.1575,2.6641-2.3977,4.7469-5.0981,4.7348-2.4703-.0121-4.541-1.8043-4.9527-4.2989-.5934-3.5722,2.9547-6.6601,6.4422-5.6187Z"/><path d="M12.3516,22.8242v1.0899h4.1777h4.1777v-1.160793L20.694249,21.7344h-4.164949-4.1777v1.0898Z" transform="matrix(.985507 0 0 1 0.179007 0)"/><path d="M12.3516,26.9414v1.0898h3.1484h3.1484v-1.0898-1.0898h-3.1484-3.1484v1.0898Z"/><path d="M51.5859,52.7344v1.0898h3.1485h3.1484v-1.0898-1.0899h-3.1484-3.1485v1.0899Z"/></svg>
