<svg id="eBgKCm8Hl3o1" xmlns="http://www.w3.org/2000/svg" xmlns:xlink="http://www.w3.org/1999/xlink" viewBox="0 0 60 60" shape-rendering="geometricPrecision" text-rendering="geometricPrecision">
<style><![CDATA[
#eBgKCm8Hl3o8_tr {animation: eBgKCm8Hl3o8_tr__tr 2000ms linear infinite normal forwards}@keyframes eBgKCm8Hl3o8_tr__tr { 0% {transform: translate(9.131749px,24.143947px) rotate(0.492205deg)} 5% {transform: translate(9.131749px,24.143947px) rotate(0.492205deg)} 20% {transform: translate(9.131749px,24.143947px) rotate(84.614975deg)} 40% {transform: translate(9.131749px,24.143947px) rotate(182.274159deg)} 50% {transform: translate(9.131749px,24.143947px) rotate(163.48151deg)} 60% {transform: translate(9.131749px,24.143947px) rotate(180.721651deg)} 75% {transform: translate(9.131749px,24.143947px) rotate(98.125761deg)} 95% {transform: translate(9.131749px,24.143947px) rotate(0.894088deg)} 100% {transform: translate(9.131749px,24.143947px) rotate(0.894088deg)}}
]]></style>
<g transform="matrix(.970071 0 0 1.058355 9.261649 0.000382)"><path d="M35.361,5.677l2.497-4.162c.284-.474.131-1.088-.343-1.372-.475-.285-1.088-.132-1.372.343L33.508,4.878C31.939,4.32,30.259,4,28.501,4s-3.438.32-5.007.878L20.859,0.486c-.284-.475-.898-.627-1.372-.343s-.627.898-.343,1.372l2.497,4.162c-4.827,2.495-8.14,7.525-8.14,13.324c0,.553.448,1,1,1h28c.552,0,1-.447,1-1-.001-5.798-3.313-10.828-8.14-13.324ZM15.539,18.001c.512-6.703,6.13-12,12.962-12s12.45,5.297,12.962,12h-25.924Z"/><path d="M35.478,11.364h-1.318c-.364,0-.659.295-.659.659v1.318c0,.364.295.659.659.659h1.319c.364,0,.659-.295.659-.659v-1.318c0-.364-.296-.659-.66-.659Z"/><path d="M22.841,11.364h-1.319c-.364,0-.659.295-.659.659v1.318c0,.364.295.659.659.659h1.319c.364,0,.659-.295.659-.659v-1.318c0-.364-.295-.659-.659-.659Z"/><path d="M42.5,21.001h-28c-.552,0-1,.447-1,1v20.171c0,2.663,2.169,4.829,4.834,4.829h1.166v6.006c0,2.202,1.794,3.994,4,3.994s4-1.792,4-3.994v-6.006h2v6.006c0,2.202,1.794,3.994,4,3.994s4-1.792,4-3.994v-6.006h1.166c2.666,0,4.834-2.166,4.834-4.829v-20.171c0-.553-.447-1-1-1Zm-1,21.171c0,1.56-1.271,2.829-2.834,2.829h-2.166c-.552,0-1,.447-1,1v7.006c0,1.1-.897,1.994-2,1.994s-2-.895-2-1.994v-7.006c0-.553-.448-1-1-1h-4c-.552,0-1,.447-1,1v7.006c0,1.1-.897,1.994-2,1.994s-2-.895-2-1.994v-7.006c0-.553-.448-1-1-1h-2.165c-1.563,0-2.835-1.27-2.835-2.829v-19.171h26v19.171Z"/><path d="M48,21.001c-1.93,0-3.5,1.572-3.5,3.504v13.992c0,1.932,1.57,3.504,3.5,3.504s3.5-1.572,3.5-3.504v-13.992c0-1.932-1.57-3.504-3.5-3.504Zm1.5,17.496c0,.829-.673,1.504-1.5,1.504s-1.5-.675-1.5-1.504v-13.992c0-.829.673-1.504,1.5-1.504s1.5.675,1.5,1.504v13.992Z"/><g id="eBgKCm8Hl3o8_tr" transform="translate(9.131749,24.143947) rotate(0.492205)"><path d="M9,21.001c-1.93,0-3.5,1.572-3.5,3.504v13.992c0,1.932,1.57,3.504,3.5,3.504s3.5-1.572,3.5-3.504v-13.992c0-1.932-1.57-3.504-3.5-3.504Zm1.5,17.496c0,.829-.673,1.504-1.5,1.504s-1.5-.675-1.5-1.504v-13.992c0-.829.673-1.504,1.5-1.504s1.5.675,1.5,1.504v13.992Z" transform="translate(-9,-24.143947)"/></g></g></svg>
