<svg id="eaHDiOPBZfY1" xmlns="http://www.w3.org/2000/svg" xmlns:xlink="http://www.w3.org/1999/xlink" viewBox="0 0 60 60" shape-rendering="geometricPrecision" text-rendering="geometricPrecision">
<style><![CDATA[
#eaHDiOPBZfY3_to {animation: eaHDiOPBZfY3_to__to 2000ms linear infinite normal forwards}@keyframes eaHDiOPBZfY3_to__to { 0% {transform: translate(18.114805px,36.483909px)} 25% {transform: translate(18.114805px,39.483909px)} 50% {transform: translate(18.114805px,36.483909px)} 75% {transform: translate(18.114805px,34.483909px)} 100% {transform: translate(18.114805px,36.483909px)}} #eaHDiOPBZfY6_to {animation: eaHDiOPBZfY6_to__to 2000ms linear infinite normal forwards}@keyframes eaHDiOPBZfY6_to__to { 0% {transform: translate(41.885194px,36.483909px)} 25% {transform: translate(41.885194px,33.483909px)} 50% {transform: translate(41.885194px,36.483909px)} 75% {transform: translate(41.885194px,39.483909px)} 100% {transform: translate(41.885194px,36.483909px)}} #eaHDiOPBZfY10 {animation: eaHDiOPBZfY10_c_o 2000ms linear infinite normal forwards}@keyframes eaHDiOPBZfY10_c_o { 0% {opacity: 0.1} 20% {opacity: 1} 60% {opacity: 0.1} 100% {opacity: 0.1}} #eaHDiOPBZfY11 {animation: eaHDiOPBZfY11_c_o 2000ms linear infinite normal forwards}@keyframes eaHDiOPBZfY11_c_o { 0% {opacity: 0.1} 40% {opacity: 1} 80% {opacity: 0.1} 100% {opacity: 0.1}} #eaHDiOPBZfY12 {animation: eaHDiOPBZfY12_c_o 2000ms linear infinite normal forwards}@keyframes eaHDiOPBZfY12_c_o { 0% {opacity: 0.1} 60% {opacity: 1} 100% {opacity: 0.1}}
]]></style>
<rect width="58" height="58" rx="6" ry="6" transform="translate(1 1)" fill="none" stroke="#000" stroke-width="2"/><g id="eaHDiOPBZfY3_to" transform="translate(18.114805,36.483909)"><g transform="translate(-17.614075,-36.033537)"><path d="M21.6105,37.7081c.0486.0142.0906.0396.126.0764.0394.0345.0709.0733.0945.1165.0538.0981.0688.2047.0451.3197-.0198.1128-.0608.2195-.1231.3199-.0562.1023-.1238.1929-.2029.272s-.1481.1347-.207.167c-.0628.0344-.1322.052-.2082.0529-.0761.0008-.1495-.0074-.2202-.0248-.0707-.0173-.1356-.0379-.1945-.0617s-.1017-.0412-.1281-.0523c-.1794-.0853-.3531-.1788-.5212-.2806-.1619-.1-.3223-.2111-.481-.3333s-.3199-.2532-.4834-.3932c-.1595-.1422-.3255-.2961-.4979-.4618-.0545.0401-.1189.0856-.1931.1364s-.1503.1028-.2284.1558c-.0802.0491-.1585.0971-.2348.144s-.1419.0855-.1968.1156c-.4277.2343-.838.3699-1.2311.4068-.3891.0347-.7825-.0456-1.1803-.2409-.257-.1244-.4956-.2946-.716-.5105-.2186-.2221-.4139-.49-.5859-.8038-.1613-.2943-.2848-.622-.3704-.9832-.0857-.3611-.1401-.7395-.163-1.1351-.019-.3977-.0073-.8046.0351-1.2206.0463-.4182.1169-.8293.2118-1.2333.0967-.4101.2169-.8051.3608-1.1849.1477-.382.3177-.7327.5099-1.0523.19-.3235.3985-.6087.6254-.8555.227-.2468.4699-.4412.7289-.5831.1059-.0581.1538-.0811.2454-.1109s.2015-.0628.2886-.0802l.2175-.0504c.1283-.0305.2117-.0458.3489-.0661.125-.0184.196-.0251.3038-.0346s.2289-.0197.3389-.0238c.1139-.0063.239-.006.3754.0008.2207.0117.4393.0756.6559.1916.2206.1138.4283.2601.6233.439.1988.1767.3837.3789.5544.6067.1726.2218.3222.4484.4491.6799.2494.4551.4039.9418.4635,1.4601.0574.5144.0433,1.0425-.0424,1.5843-.0839.5357-.2298,1.0748-.4376,1.6172-.2099.5385-.4567,1.0564-.7403,1.5536-.0285.0411-.0482.0749-.0592.1013-.0071.0243-.0031.0502.0119.0777.1689.1778.3277.328.4765.4505s.3009.2279.4564.3162c.1555.0882.3195.1641.4921.2277.1787.0653.3812.1278.6077.1873Zm-6.8078-1.9778c.0327.1249.0702.2446.1126.3592.0424.1145.0904.2208.1442.3189.0967.1765.2136.3293.3506.4583.1349.125.2845.2165.4488.2744.1683.0557.3512.0728.5486.0514.1952-.0254.4047-.0994.6283-.2219.0863-.0473.1617-.0912.2263-.1317.0684-.0426.131-.082.1877-.1182.0546-.0401.1061-.0811.1546-.123.0524-.044.1048-.088.1572-.132-.0505-.0642-.1124-.1399-.1858-.2273-.0716-.0934-.1432-.1868-.2148-.2802-.0737-.0973-.1401-.1859-.1992-.2658-.0573-.0859-.0989-.1524-.1247-.1995s-.053-.1061-.0817-.1771-.0416-.1456-.0385-.2238c.0048-.0843.0327-.1684.0836-.2524s.143-.1626.2764-.2357c.1491-.0817.2867-.0959.4129-.0426.124.0494.2432.132.3577.2478.1184.1137.2335.2445.3451.3925.1096.144.2255.2718.3479.3833.1768-.301.3388-.6245.4859-.9704.149-.352.2673-.7178.3551-1.0975.0878-.3798.135-.773.1417-1.1797.0085-.4127-.0414-.8343-.1498-1.2647-.0302-.111-.0663-.2187-.1082-.3232-.0381-.1067-.084-.2091-.1378-.3072-.1096-.2001-.2467-.3851-.4113-.5551-.1667-.1739-.353-.3091-.5589-.4054-.2019-.0985-.423-.1482-.6633-.1492-.2364-.0031-.4801.0642-.7312.2018-.1766.0967-.3397.204-.4894.3217-.148.1117-.2882.2422-.4208.3913-.1325.1492-.2621.3223-.3888.5192-.125.191-.2508.4129-.3774.666-.1565.3102-.2849.6484-.3852,1.0146-.1024.3622-.1746.7333-.2163,1.1133-.0399.3739-.0519.7478-.0358,1.1216.02.3716.0712.7211.1537,1.0483Z"/><path d="M29.0548,24.013207v21.668293h-9.2101c-.0737,0-.1454.024-.2042.0683l-9.4968,7.1616c-.25382.1914-.60781-.0404-.53387-.3496l1.53767-6.4303c.0533-.2229-.1254-.4334-.3545-.4282C8.52397,45.755,6,44.9881,6,42.2911v-14.0702C6,26.5257,7.35615,25,9.3904,25h19.9187.750341" transform="translate(-.415645-2.46357)" fill="none" stroke="#000" stroke-width="2"/></g></g><g id="eaHDiOPBZfY6_to" transform="translate(41.885194,36.483909)"><g transform="translate(-41.673515,-36.033537)"><path d="M45.7464,38.5001c.0275.0549.0412.1099.0412.1649c0,.1558-.0549.2932-.1649.4123-.1008.1099-.2291.1649-.3848.1649-.1191,0-.2245-.032-.3161-.0962s-.1604-.1466-.2062-.2473l-1.2094-3.1611h-4.5079l-1.2369,3.1748c-.0458.1008-.1145.1832-.2062.2474-.0916.0549-.197.0824-.3161.0824-.1557,0-.284-.055-.3848-.1649s-.1512-.2428-.1512-.3986c0-.0641.0138-.1237.0413-.1786l4.0955-10.129c.0458-.1191.11-.2108.1924-.2749.0825-.0641.1696-.0962.2612-.0962.1008,0,.1924.0321.2748.0962.0917.0641.1604.1603.2062.2886l3.9719,10.1153Zm-4.5491-8.3836l-1.7867,4.5766h3.697l-1.7454-4.5766-.0825-.2886-.0824.2886Z"/><path d="M29.0548,24.013207v21.668293h-9.2101c-.0737,0-.1454.024-.2042.0683l-9.4968,7.1616c-.25382.1914-.60781-.0404-.53387-.3496l1.53767-6.4303c.0533-.2229-.1254-.4334-.3545-.4282C8.52397,45.755,6,44.9881,6,42.2911v-14.0702C6,26.5257,7.35615,25,9.3904,25h19.9187.750341" transform="matrix(-1 0 0 1 59.703237-2.46357)" fill="none" stroke="#000" stroke-width="2"/></g></g><line x1="-28.21095" y1="0" x2="28.21095" y2="0" transform="translate(29.855475 13.418806)" fill="none" stroke="#000" stroke-width="2"/><ellipse id="eaHDiOPBZfY10" rx="3.052626" ry="3.077855" transform="translate(8.213164 7.482791)" opacity="0.1" fill="none" stroke="#000" stroke-width="2"/><ellipse id="eaHDiOPBZfY11" rx="3.052626" ry="3.077855" transform="translate(18.199377 7.482791)" opacity="0.1" fill="none" stroke="#000" stroke-width="2"/><ellipse id="eaHDiOPBZfY12" rx="3.052626" ry="3.077855" transform="translate(28.010386 7.482791)" opacity="0.1" fill="none" stroke="#000" stroke-width="2"/></svg>
