<svg id="eEDcp8U9jkg1" xmlns="http://www.w3.org/2000/svg" xmlns:xlink="http://www.w3.org/1999/xlink" viewBox="0 0 62 66" shape-rendering="geometricPrecision" text-rendering="geometricPrecision">
<style><![CDATA[
#eEDcp8U9jkg2_to {animation: eEDcp8U9jkg2_to__to 2000ms linear infinite normal forwards}@keyframes eEDcp8U9jkg2_to__to { 0% {transform: translate(33.543752px,25.379239px)} 25% {transform: translate(29.721135px,27.582838px)} 50% {transform: translate(43.737402px,26.308633px)} 75% {transform: translate(29.721139px,27.092765px)} 100% {transform: translate(33.445744px,25.524512px)}} #eEDcp8U9jkg2_tr {animation: eEDcp8U9jkg2_tr__tr 2000ms linear infinite normal forwards}@keyframes eEDcp8U9jkg2_tr__tr { 0% {transform: rotate(0deg)} 25% {transform: rotate(-12.787918deg)} 50% {transform: rotate(-22.056358deg)} 75% {transform: rotate(-17.584164deg)} 100% {transform: rotate(-0.43151deg)}}
]]></style>
<g id="eEDcp8U9jkg2_to" transform="translate(33.543752,25.379239)"><g id="eEDcp8U9jkg2_tr" transform="rotate(0)"><path d="M46.8066,0.205818c-1.2593.266407-2.8941,1.186722-3.766,2.107032-.2785.29062-3.6086,4.29883-7.4109,8.90035l-6.9145,8.3676-1.0656.0727c-3.2211.2179-6.3937,2.1312-8.2223,4.9406-.6296.9688-1.1261,2.0828-2.0464,4.5895-.7145,1.9375-1.2715,3.0515-1.8407,3.7054-.4843.5449-1.441,1.2473-2.1554,1.5621-1.2715.5571-1.877,1.3684-1.877,2.5067c0,1.4168.8477,2.2281,3.8145,3.6691c1.8043.884,3.7297,1.5258,5.3765,1.8043c1.3199.218,4.6016.2664,6.1879.0727c3.7176-.4481,6.7207-1.8285,9.1668-4.2141c2.1192-2.0707,3.3059-4.8074,3.3059-7.5926v-1.0172l7.5078-9.0578c7.9801-9.6148,8.2707-10.0023,8.5976-11.62498.2301-1.07773.0969-3.19687-.2421-4.09297-.8598-2.24023-2.7973-4.020308-5.0375-4.601558-.654-.169532-2.761-.230079-3.3786-.096874ZM49.4223,5.32808c.7265.3754,1.1988,1.19883,1.1988,2.04649-.0121.39961-.0969.83554-.218,1.05352-.109.20585-3.0636,3.81441-6.5633,8.02851l-6.3574,7.641-.7871-.8719c-.4359-.4722-1.2109-1.1746-1.7195-1.5621l-.9324-.6902l6.2968-7.6047c4.1657-5.0496,6.4543-7.72577,6.7934-7.95585.6418-.41172,1.5621-.44805,2.2887-.08477ZM30.677,24.9332c3.9113,1.5379,4.9648,6.539,2.0343,9.6148-1.2715,1.332-3.1605,2.3734-5.098,2.8094-.5813.1332-1.6953.2301-3.1121.2664-2.3492.0726-3.2938-.0484-4.9407-.5934l-.775-.2664.3997-.4359c1.114-1.2352,1.9253-2.7731,2.9789-5.6914c1.0171-2.8336,1.5863-3.8145,2.6882-4.6742.7266-.5692,1.211-.8356,2.0829-1.1504.8839-.327,2.773-.2664,3.7418.1211Z" transform="translate(-33.543752,-21.379239)"/></g></g><path d="M7.57031,9.02148C5.71758,9.4332,4.28867,10.2203,2.83555,11.6734C1.6125,12.8965,0.946484,13.95,0.389453,15.5605l-.326953.9688v14.1074v14.1074l.326953.9688C0.946484,47.3113,1.6125,48.377,2.83555,49.6s2.28867,1.8891,3.88711,2.4461l.96875.3269l10.45039.0364l10.4383.0363v2.3492v2.3492l-4.5774.0364-4.5894.0363-.5813.3633c-.8476.5207-1.1867,1.1988-1.1261,2.2523.0484.8961.339,1.4531,1.005,1.9012L19.0863,62h11.9157h11.9156l.3754-.2664c.666-.4481.9566-1.0051,1.005-1.9012.0606-1.0535-.2785-1.7316-1.1261-2.2523l-.5813-.3633-4.5894-.0363-4.5774-.0364v-2.3492-2.3492l10.4504-.0363l10.4383-.0364.9687-.3269c1.5985-.557,2.6641-1.2231,3.8872-2.4461c1.2351-1.2352,1.9011-2.3129,2.4339-3.8871.2664-.8234.3149-1.1988.327-2.434.0121-1.3562-.0121-1.4894-.2785-1.8891-.5328-.7628-1.0172-1.005-2.0707-1.005-.775,0-.993.0484-1.3563.2906-.7144.4965-.9445.9687-1.1383,2.2766-.2179,1.4531-.6054,2.3007-1.4289,3.1363-.7629.7629-1.6953,1.223-2.7972,1.3805-1.1625.1574-42.5524.1574-43.71487,0-1.10195-.1575-2.03437-.6176-2.79726-1.3805-.79922-.8113-1.22305-1.7074-1.38047-2.9184-.08477-.6418-.1211-5.0496-.09688-13.1992.03633-11.1648.06055-12.2789.2543-12.8238.6418-1.8406,2.11914-3.0637,4.02031-3.3422.49649-.0727,4.39567-.1211,9.49377-.1211c8.5734,0,8.6582,0,9.191-.2543.3148-.1574.6539-.4602.8477-.7508.2785-.4238.3269-.6176.3269-1.4168c0-1.0535-.2422-1.53787-1.0051-2.07068l-.4359-.29063-9.627-.02422c-7.6289-.01211-9.79645.01211-10.36559.14531Z" transform="translate(0 4)"/><path d="M58.0421,14.4828c-.5207.3027-1.0293,1.0172-1.1746,1.6348-.0363.1816.0121.8597.109,1.5137.1453.9445.1817,2.5308.1817,7.423c0,6.1031,0,6.2484.2543,6.7691.1574.3149.4601.6539.7507.8477.4239.2785.6176.3269,1.4168.3269s.993-.0484,1.4168-.3269c.3028-.1938.5934-.5328.7508-.8598.2664-.5449.2664-.5691.2301-7.8468-.0485-8.1375-.0485-8.2102-.8356-9.0336-.5449-.5571-1.0414-.7629-1.889-.7629-.5328,0-.8235.0726-1.211.3148Z" transform="translate(0 4)"/></svg>
