<svg id="ezEmM5xpFNZ1" xmlns="http://www.w3.org/2000/svg" xmlns:xlink="http://www.w3.org/1999/xlink" viewBox="0 0 62 60" shape-rendering="geometricPrecision" text-rendering="geometricPrecision">
<style><![CDATA[
#ezEmM5xpFNZ2_ts {animation: ezEmM5xpFNZ2_ts__ts 2000ms linear infinite normal forwards}@keyframes ezEmM5xpFNZ2_ts__ts { 0% {transform: translate(56.79295px,59.411189px) scale(1,1)} 50% {transform: translate(56.79295px,59.411189px) scale(1,0.773799)} 100% {transform: translate(56.79295px,59.411189px) scale(1,1)}} #ezEmM5xpFNZ3_ts {animation: ezEmM5xpFNZ3_ts__ts 2000ms linear infinite normal forwards}@keyframes ezEmM5xpFNZ3_ts__ts { 0% {transform: translate(22.402718px,59.407887px) scale(1,1)} 50% {transform: translate(22.402718px,59.407887px) scale(1,0.624184)} 100% {transform: translate(22.402718px,59.407887px) scale(1,1)}} #ezEmM5xpFNZ4_ts {animation: ezEmM5xpFNZ4_ts__ts 2000ms linear infinite normal forwards}@keyframes ezEmM5xpFNZ4_ts__ts { 0% {transform: translate(39.606575px,59.407887px) scale(1,1)} 50% {transform: translate(39.606575px,59.407887px) scale(1,1.31679)} 100% {transform: translate(39.606575px,59.407887px) scale(1,1)}} #ezEmM5xpFNZ5_ts {animation: ezEmM5xpFNZ5_ts__ts 2000ms linear infinite normal forwards}@keyframes ezEmM5xpFNZ5_ts__ts { 0% {transform: translate(5.207392px,59.407887px) scale(1,1)} 50% {transform: translate(5.207392px,59.407887px) scale(1,1.38155)} 100% {transform: translate(5.207392px,59.407887px) scale(1,1)}} #ezEmM5xpFNZ6_to {animation: ezEmM5xpFNZ6_to__to 2000ms linear infinite normal forwards}@keyframes ezEmM5xpFNZ6_to__to { 0% {transform: translate(8.048439px,24.124555px)} 50% {transform: translate(8.048439px,17.196376px)} 100% {transform: translate(8.048439px,24.025321px)}} #ezEmM5xpFNZ7_to {animation: ezEmM5xpFNZ7_to__to 2000ms linear infinite normal forwards}@keyframes ezEmM5xpFNZ7_to__to { 0% {transform: translate(25.243767px,13.696376px)} 50% {transform: translate(25.243767px,26.928472px)} 100% {transform: translate(25.243767px,13.696376px)}} #ezEmM5xpFNZ8_to {animation: ezEmM5xpFNZ8_to__to 2000ms linear infinite normal forwards}@keyframes ezEmM5xpFNZ8_to__to { 0% {transform: translate(42.447628px,20.624555px)} 50% {transform: translate(42.447629px,11.163901px)} 100% {transform: translate(42.447629px,20.624555px)}} #ezEmM5xpFNZ9_to {animation: ezEmM5xpFNZ9_to__to 2000ms linear infinite normal forwards}@keyframes ezEmM5xpFNZ9_to__to { 0% {transform: translate(59.633997px,11.838777px)} 50% {transform: translate(59.633997px,19.923336px)} 100% {transform: translate(59.633997px,11.838777px)}} #ezEmM5xpFNZ10_to {animation: ezEmM5xpFNZ10_to__to 2000ms linear infinite normal forwards}@keyframes ezEmM5xpFNZ10_to__to { 0% {transform: translate(13.849504px,16.215845px)} 50% {transform: translate(13.939497px,19.825177px)} 100% {transform: translate(13.85px,16.22px)}} #ezEmM5xpFNZ10_tr {animation: ezEmM5xpFNZ10_tr__tr 2000ms linear infinite normal forwards}@keyframes ezEmM5xpFNZ10_tr__tr { 0% {transform: rotate(-36.16deg)} 50% {transform: rotate(31.862264deg)} 100% {transform: rotate(-36.16deg)}} #ezEmM5xpFNZ11_to {animation: ezEmM5xpFNZ11_to__to 2000ms linear infinite normal forwards}@keyframes ezEmM5xpFNZ11_to__to { 0% {transform: translate(31px,14.775993px)} 50% {transform: translate(31px,16.124188px)} 100% {transform: translate(31px,14.78px)}} #ezEmM5xpFNZ11_tr {animation: ezEmM5xpFNZ11_tr__tr 2000ms linear infinite normal forwards}@keyframes ezEmM5xpFNZ11_tr__tr { 0% {transform: rotate(22.949976deg)} 50% {transform: rotate(-42.630244deg)} 100% {transform: rotate(22.95deg)}} #ezEmM5xpFNZ11_ts {animation: ezEmM5xpFNZ11_ts__ts 2000ms linear infinite normal forwards}@keyframes ezEmM5xpFNZ11_ts__ts { 0% {transform: scale(0.980497,1)} 50% {transform: scale(1.435044,1)} 100% {transform: scale(1.022129,1)}} #ezEmM5xpFNZ12_to {animation: ezEmM5xpFNZ12_to__to 2000ms linear infinite normal forwards}@keyframes ezEmM5xpFNZ12_to__to { 0% {transform: translate(48.370128px,13.806366px)} 50% {transform: translate(48.097081px,13.701183px)} 100% {transform: translate(48.200499px,14.101602px)}} #ezEmM5xpFNZ12_tr {animation: ezEmM5xpFNZ12_tr__tr 2000ms linear infinite normal forwards}@keyframes ezEmM5xpFNZ12_tr__tr { 0% {transform: rotate(-28.73306deg)} 50% {transform: rotate(32.026349deg)} 100% {transform: rotate(-28.73deg)}}
]]></style>
<g id="ezEmM5xpFNZ2_ts" transform="translate(56.79295,59.411189) scale(1,1)"><path d="M52.4215,21.6809c-.2301.1453-.5086.4601-.6176.6902-.2059.3996-.218,1.5016-.218,17.9703c0,17.2438,0,17.5586.2422,18.0551.4602.9445.5328.9687,4.7469,1.0051c2.3734.0242,3.8871-.0121,4.202-.0969.2906-.0727.6175-.2906.8476-.5449L62,58.3238v-17.8855c0-17.2801-.0121-17.8977-.2301-18.261-.448-.7386-.6539-.7749-5.0133-.7749-3.875,0-3.9234,0-4.3351.2785Zm6.0668,18.6726v15.4395h-1.6348-1.6347v-15.4395-15.4394h1.6347h1.6348v15.4394Z" transform="translate(-56.79295,-59.411187)"/></g><g id="ezEmM5xpFNZ3_ts" transform="translate(22.402718,59.407887) scale(1,1)"><path d="M18.3579,24.9141c-.1816.0605-.448.2058-.5812.3269-.6055.5449-.5813-.2543-.5813,16.8926c0,15.6695.0122,16.0328.2422,16.4082.4965.8234.4844.8234,4.7832.8598c3.8266.0363,3.8871.0242,4.42-.2422c1.0535-.5328.9687.9566.9687-17.05c0-18.0067.0848-16.5172-.9687-17.05-.5207-.2543-.6297-.2664-4.2383-.2543-2.0344,0-3.8508.0605-4.0446.109Zm5.7399,17.1953v13.6836h-1.6953-1.6953v-13.6836-13.6836h1.6953h1.6953v13.6836Z" transform="translate(-22.402716,-59.407884)"/></g><g id="ezEmM5xpFNZ4_ts" transform="translate(39.606575,59.407887) scale(1,1)"><path d="M35.3712,31.9133c-.2301.109-.5328.3633-.666.5449-.2543.3391-.2543.4117-.2906,12.957-.0243,14.2891-.109,13.2114.9445,13.7442.5328.2664.5933.2785,4.4199.2422c4.2988-.0364,4.2867-.0364,4.7832-.8598.2301-.3754.2422-.7145.2422-12.9934v-12.6058l-.2785-.4118c-.5449-.8113-.666-.8355-4.9285-.8355-3.3907,0-3.8629.0242-4.2262.218Zm5.9215,13.6472v10.2325h-1.6953-1.6953v-10.2325-10.2324h1.6953h1.6953v10.2324Z" transform="translate(-39.606568,-59.407887)"/></g><g id="ezEmM5xpFNZ5_ts" transform="translate(5.207392,59.407887) scale(1,1)"><path d="M0.836019,38.852c-.883984.5207-.835547-.1211-.835547,10.2082v9.2636l.375391.436c.230078.2543.557031.4722.847657.5449.31484.0848,1.82852.1211,4.20195.0969c4.21406-.0364,4.28672-.0606,4.74683-1.0051.2301-.4844.2422-.775.2422-9.4574c0-8.4766-.0121-8.9731-.23-9.3727-.1211-.2301-.36332-.5328-.54497-.666-.31484-.2301-.5207-.2422-4.34726-.2664-3.89922-.0363-4.03242-.0242-4.456251.218ZM6.78172,48.9512v6.8418h-1.63476-1.63477v-6.8418-6.8418h1.63477h1.63476v6.8418Z" transform="translate(-5.207392,-59.407887)"/></g><g id="ezEmM5xpFNZ6_to" transform="translate(8.048439,24.124555)"><ellipse rx="3.5" ry="3.5" transform="translate(-2.841047,-2.722153)" fill="#fff" stroke="#000" stroke-width="3"/></g><g id="ezEmM5xpFNZ7_to" transform="translate(25.243767,13.696376)"><ellipse rx="3.5" ry="3.5" transform="translate(-2.841047,-2.722153)" fill="#fff" stroke="#000" stroke-width="3"/></g><g id="ezEmM5xpFNZ8_to" transform="translate(42.447628,20.624555)"><ellipse rx="3.5" ry="3.5" transform="translate(-2.841047,-2.722153)" fill="#fff" stroke="#000" stroke-width="3"/></g><g id="ezEmM5xpFNZ9_to" transform="translate(59.633997,11.838777)"><ellipse rx="3.5" ry="3.5" transform="translate(-2.841047,-2.722153)" fill="#fff" stroke="#000" stroke-width="3"/></g><g id="ezEmM5xpFNZ10_to" transform="translate(13.849504,16.215845)"><g id="ezEmM5xpFNZ10_tr" transform="rotate(-36.16)"><line x1="-5.474455" y1="0" x2="5.474455" y2="0" transform="scale(1.09182,-1) translate(0,0)" fill="rgba(0,0,0,0)" stroke="#000" stroke-width="3"/></g></g><g id="ezEmM5xpFNZ11_to" transform="translate(31,14.775993)"><g id="ezEmM5xpFNZ11_tr" transform="rotate(22.949976)"><g id="ezEmM5xpFNZ11_ts" transform="scale(0.980497,1)"><line x1="-5.474455" y1="0" x2="5.474455" y2="0" transform="translate(0,0)" fill="rgba(0,0,0,0)" stroke="#000" stroke-width="3"/></g></g></g><g id="ezEmM5xpFNZ12_to" transform="translate(48.370128,13.806366)"><g id="ezEmM5xpFNZ12_tr" transform="rotate(-28.73306)"><line x1="-5.474455" y1="0" x2="5.474455" y2="0" transform="scale(1.075245,-1) translate(0,0)" fill="rgba(0,0,0,0)" stroke="#000" stroke-width="3"/></g></g></svg>
