<svg width="106" height="78" viewBox="0 0 106 78" fill="none" xmlns="http://www.w3.org/2000/svg">
<path d="M105.367 24.3994V52.8554L91.1441 44.8406L78.447 37.6854L77.9056 37.3855L27.9988 9.26601L27.3916 8.92215L31.9825 6.27006L35.7173 4.11547C40.898 1.51177 46.5981 0.107218 52.3954 0.00590101C58.1926 -0.0954162 63.9383 1.10909 69.2068 3.53018L75.3267 7.07117L79.2847 9.35746L92.3769 16.9223L102.872 22.98L105.367 24.3994Z" fill="#A004FF"/>
<path d="M105.036 53.5103L104.088 54.0626L102.947 54.7175L100.16 56.327L97.3392 57.9548C91.9452 60.2918 86.1057 61.4217 80.2293 61.2657C74.353 61.1096 68.5817 59.6713 63.3193 57.0513C63.3193 57.1025 63.3193 57.1574 63.3193 57.2122L53.845 51.7435L54.6973 51.2496L59.9503 48.2134L61.7464 47.1746L66.3445 44.5188L76.9748 38.3916L77.5967 38.0258L78.1381 38.3257L90.8352 45.4809L105.036 53.5103Z" fill="#A004FF" fill-opacity="0.7"/>
<path d="M50.518 26.1418L50.0424 26.4162L44.0103 29.906L43.564 30.162L41.5448 31.3216L40.5388 31.9106L37.6124 33.5969L30.9145 37.4452L27.7173 39.2742L1.66468 24.0714L1.56226 24.0092L3.39128 22.952L3.41689 22.9337L4.60941 22.2497L4.85816 22.107C10.572 18.9634 16.963 17.2523 23.4832 17.1204C30.0034 16.9885 36.4584 18.4398 42.2947 21.3498L50.518 26.1418Z" fill="#A004FF" fill-opacity="0.7"/>
<path d="M77.2153 69.1077L74.1535 70.8745L74.0877 70.9148L70.4296 73.0255C64.784 75.8644 58.5288 77.2767 52.2112 77.139C45.8935 77.0012 39.7058 75.3176 34.1893 72.2353L33.3772 71.7634L25.8636 67.4287L15.3577 61.3636L2.2728 53.8061L0.597412 52.844V24.3953L14.9333 32.7613L26.7488 39.6604L50.892 53.7439L51.598 54.1499L76.8861 68.9138L77.2153 69.1077Z" fill="#A004FF"/>
</svg>
