<svg width="59" height="61" viewBox="0 0 59 61" fill="none" xmlns="http://www.w3.org/2000/svg">
<line x1="30" y1="25" x2="30" y2="45" stroke="black" stroke-width="2"/>
<rect x="1" y="1" width="56.4219" height="58.4766" rx="6" stroke="black" stroke-width="2"/>
<mask id="path-3-inside-1_780_2137" fill="white">
<path d="M6 42.2911V28.2209C6 26.5257 7.35615 25 9.3904 25H29.3091H49.2012C49.2189 25 49.2359 25.0013 49.2534 25.0042C50.3352 25.1846 52.4487 26.1381 52.4487 28.5599V41.9521C52.4487 43.5732 50.8983 45.6595 47.7975 45.6904C47.5772 45.6926 47.404 45.8907 47.4463 46.1069L48.7207 52.6207C48.7802 52.9246 48.4346 53.1425 48.1859 52.958L38.4684 45.7483C38.41 45.7049 38.3391 45.6815 38.2664 45.6815H29.0548H19.8447C19.771 45.6815 19.6993 45.7055 19.6405 45.7498L10.1437 52.9114C9.88988 53.1028 9.53589 52.871 9.60983 52.5618L11.1475 46.1315C11.2008 45.9086 11.0221 45.6981 10.793 45.7033C8.52397 45.755 6 44.9881 6 42.2911Z"/>
</mask>
<path d="M10.793 45.7033L10.7475 43.7038H10.7475L10.793 45.7033ZM11.1475 46.1315L13.0927 46.5966L13.0927 46.5966L11.1475 46.1315ZM9.60983 52.5618L11.555 53.027L11.555 53.027L9.60983 52.5618ZM10.1437 52.9114L11.3479 54.5082H11.3479L10.1437 52.9114ZM19.6405 45.7498L20.8447 47.3467L20.8447 47.3467L19.6405 45.7498ZM38.4684 45.7483L37.2767 47.3544L37.2767 47.3545L38.4684 45.7483ZM48.1859 52.958L49.3776 51.3518L49.3776 51.3518L48.1859 52.958ZM48.7207 52.6207L46.7579 53.0047L48.7207 52.6207ZM47.4463 46.1069L49.409 45.7228V45.7228L47.4463 46.1069ZM47.7975 45.6904L47.8174 47.6903L47.7975 45.6904ZM49.2534 25.0042L49.5825 23.0314L49.5824 23.0314L49.2534 25.0042ZM4 28.2209V42.2911H8V28.2209H4ZM4 42.2911C4 44.4107 5.06336 45.9134 6.5537 46.7646C7.9091 47.5388 9.51878 47.7328 10.8385 47.7028L10.7475 43.7038C9.79822 43.7254 9.01138 43.5619 8.53753 43.2912C8.32411 43.1693 8.20896 43.0465 8.14168 42.9351C8.07805 42.8298 8 42.6414 8 42.2911H4ZM9.20236 45.6664L7.66467 52.0967L11.555 53.027L13.0927 46.5966L9.20236 45.6664ZM11.3479 54.5082L20.8447 47.3467L18.4363 44.153L8.93952 51.3145L11.3479 54.5082ZM37.2767 47.3545L46.9943 54.5642L49.3776 51.3518L39.6601 44.1421L37.2767 47.3545ZM50.6835 52.2366L49.409 45.7228L45.4835 46.4909L46.7579 53.0047L50.6835 52.2366ZM47.8174 47.6903C51.8762 47.6499 54.4487 44.8038 54.4487 41.9521H50.4487C50.4487 42.3427 49.9204 43.6691 47.7776 43.6905L47.8174 47.6903ZM54.4487 41.9521V28.5599H50.4487V41.9521H54.4487ZM54.4487 28.5599C54.4487 26.6827 53.5983 25.3063 52.5515 24.4172C51.5643 23.5787 50.412 23.1698 49.5825 23.0314L48.9243 26.9769C49.1765 27.019 49.6219 27.177 49.962 27.4659C50.2424 27.7041 50.4487 28.0153 50.4487 28.5599H54.4487ZM9.3904 23C6.25157 23 4 25.4211 4 28.2209H8C8 27.6302 8.46073 27 9.3904 27V23ZM19.8447 47.6815H29.0548V43.6815H19.8447V47.6815ZM29.0548 47.6815H38.2664V43.6815H29.0548V47.6815ZM49.2012 23H29.3091V27H49.2012V23ZM29.3091 23H9.3904V27H29.3091V23ZM49.5824 23.0314C49.4455 23.0086 49.3177 23 49.2012 23V27C49.12 27 49.0263 26.9939 48.9244 26.9769L49.5824 23.0314ZM49.409 45.7228C49.6249 46.8258 48.7522 47.681 47.8174 47.6903L47.7776 43.6905C46.4022 43.7042 45.1831 44.9555 45.4835 46.4909L49.409 45.7228ZM46.9943 54.5642C48.7098 55.837 51.0937 54.3334 50.6835 52.2366L46.7579 53.0047C46.4666 51.5157 48.1595 50.4481 49.3776 51.3518L46.9943 54.5642ZM39.6601 44.1421C39.2567 43.8428 38.768 43.6815 38.2664 43.6815V47.6815C37.9103 47.6815 37.5633 47.5671 37.2767 47.3544L39.6601 44.1421ZM20.8447 47.3467C20.5564 47.5641 20.2053 47.6815 19.8447 47.6815V43.6815C19.3367 43.6815 18.8423 43.8469 18.4363 44.153L20.8447 47.3467ZM7.66468 52.0967C7.15457 54.2298 9.59674 55.8288 11.3479 54.5082L8.93952 51.3145C10.183 50.3768 11.9172 51.5122 11.555 53.027L7.66468 52.0967ZM10.8385 47.7028C9.82754 47.7258 8.93433 46.7872 9.20236 45.6664L13.0927 46.5966C13.4673 45.03 12.2167 43.6704 10.7475 43.7038L10.8385 47.7028Z" fill="black" mask="url(#path-3-inside-1_780_2137)"/>
<path d="M10.6762 6.48744C10.6762 7.49778 9.85716 8.31679 8.84687 8.31679C7.83658 8.31679 7.01758 7.49778 7.01758 6.48744C7.01758 5.47711 7.83658 4.65811 8.84687 4.65811C9.85717 4.65811 10.6762 5.47711 10.6762 6.48744ZM8.84687 10.3168C10.9618 10.3168 12.6762 8.6023 12.6762 6.48744C12.6762 4.37258 10.9618 2.65811 8.84687 2.65811C6.73197 2.65811 5.01758 4.37258 5.01758 6.48744C5.01758 8.6023 6.73196 10.3168 8.84687 10.3168ZM19.523 6.48744C19.523 7.49776 18.704 8.31679 17.6937 8.31679C16.6834 8.31679 15.8644 7.49776 15.8644 6.48744C15.8644 5.47713 16.6834 4.65811 17.6937 4.65811C18.704 4.65811 19.523 5.47713 19.523 6.48744ZM17.6937 10.3168C19.8086 10.3168 21.523 8.60232 21.523 6.48744C21.523 4.37256 19.8086 2.65811 17.6937 2.65811C15.5788 2.65811 13.8644 4.37256 13.8644 6.48744C13.8644 8.60232 15.5788 10.3168 17.6937 10.3168ZM28.7958 6.77885C28.7958 7.78916 27.9767 8.60818 26.9664 8.60818C25.9561 8.60818 25.1371 7.78917 25.1371 6.77885C25.1371 5.76853 25.9561 4.94951 26.9664 4.94951C27.9767 4.94951 28.7958 5.76854 28.7958 6.77885ZM26.9664 10.6082C29.0813 10.6082 30.7958 8.89374 30.7958 6.77885C30.7958 4.66397 29.0813 2.94951 26.9664 2.94951C24.8515 2.94951 23.1371 4.66398 23.1371 6.77885C23.1371 8.89374 24.8515 10.6082 26.9664 10.6082ZM6.78085 1H51.6296C54.8222 1 57.4104 3.58817 57.4104 6.78084V11.975H1V6.78084C1 3.58818 3.58819 1 6.78085 1Z" stroke="black" stroke-width="2"/>
<mask id="path-6-inside-2_780_2137" fill="white">
<path d="M21.6105 37.7081C21.6591 37.7223 21.7011 37.7477 21.7365 37.7845C21.7759 37.819 21.8074 37.8578 21.831 37.901C21.8848 37.9991 21.8998 38.1057 21.8761 38.2207C21.8563 38.3335 21.8153 38.4402 21.753 38.5406C21.6968 38.6429 21.6292 38.7335 21.5501 38.8126C21.4709 38.8917 21.402 38.9473 21.3431 38.9796C21.2803 39.014 21.2109 39.0316 21.1349 39.0325C21.0588 39.0333 20.9854 39.0251 20.9147 39.0077C20.844 38.9904 20.7791 38.9698 20.7202 38.946C20.6612 38.9222 20.6185 38.9048 20.5921 38.8937C20.4127 38.8084 20.239 38.7149 20.0709 38.6131C19.909 38.5131 19.7486 38.402 19.5899 38.2798C19.4311 38.1577 19.27 38.0266 19.1065 37.8866C18.947 37.7444 18.781 37.5905 18.6086 37.4248C18.5541 37.4649 18.4897 37.5104 18.4155 37.5612C18.3414 37.6121 18.2652 37.664 18.1871 37.717C18.1069 37.7661 18.0286 37.8141 17.9523 37.861C17.876 37.9079 17.8104 37.9465 17.7555 37.9766C17.3278 38.2109 16.9175 38.3465 16.5244 38.3834C16.1353 38.4181 15.7419 38.3378 15.3441 38.1425C15.0871 38.0181 14.8485 37.8479 14.6281 37.632C14.4095 37.4099 14.2142 37.142 14.0422 36.8282C13.8809 36.5339 13.7574 36.2062 13.6718 35.845C13.5861 35.4839 13.5317 35.1055 13.5088 34.7099C13.4898 34.3122 13.5015 33.9053 13.5439 33.4893C13.5902 33.0711 13.6608 32.66 13.7557 32.256C13.8524 31.8459 13.9726 31.4509 14.1165 31.0711C14.2642 30.6891 14.4342 30.3384 14.6264 30.0188C14.8164 29.6953 15.0249 29.4101 15.2518 29.1633C15.4788 28.9165 15.7217 28.7221 15.9807 28.5802C16.0866 28.5221 16.1345 28.4991 16.2261 28.4693C16.3177 28.4395 16.4276 28.4065 16.5147 28.3891L16.7322 28.3387C16.8605 28.3082 16.9439 28.2929 17.0811 28.2726C17.2061 28.2542 17.2771 28.2475 17.3849 28.238C17.4926 28.2285 17.6138 28.2183 17.7238 28.2142C17.8377 28.2079 17.9628 28.2082 18.0992 28.215C18.3199 28.2267 18.5385 28.2906 18.7551 28.4066C18.9757 28.5204 19.1834 28.6667 19.3784 28.8456C19.5772 29.0223 19.7621 29.2245 19.9328 29.4523C20.1054 29.6741 20.255 29.9007 20.3819 30.1322C20.6313 30.5873 20.7858 31.074 20.8454 31.5923C20.9028 32.1067 20.8887 32.6348 20.803 33.1766C20.7191 33.7123 20.5732 34.2514 20.3654 34.7938C20.1555 35.3323 19.9087 35.8502 19.6251 36.3474C19.5966 36.3885 19.5769 36.4223 19.5659 36.4487C19.5588 36.473 19.5628 36.4989 19.5778 36.5264C19.7467 36.7042 19.9055 36.8544 20.0543 36.9769C20.2031 37.0995 20.3552 37.2048 20.5107 37.2931C20.6662 37.3813 20.8302 37.4572 21.0028 37.5208C21.1815 37.5861 21.384 37.6486 21.6105 37.7081ZM14.8027 35.7303C14.8354 35.8552 14.8729 35.9749 14.9153 36.0895C14.9577 36.204 15.0057 36.3103 15.0595 36.4084C15.1562 36.5849 15.2731 36.7377 15.4101 36.8667C15.545 36.9917 15.6946 37.0832 15.8589 37.1411C16.0272 37.1968 16.2101 37.2139 16.4075 37.1925C16.6027 37.1671 16.8122 37.0931 17.0358 36.9706C17.1221 36.9233 17.1975 36.8794 17.2621 36.8389C17.3305 36.7963 17.3931 36.7569 17.4498 36.7207C17.5044 36.6806 17.5559 36.6396 17.6044 36.5977C17.6568 36.5537 17.7092 36.5097 17.7616 36.4657C17.7111 36.4015 17.6492 36.3258 17.5758 36.2384C17.5042 36.145 17.4326 36.0516 17.361 35.9582C17.2873 35.8609 17.2209 35.7723 17.1618 35.6924C17.1045 35.6065 17.0629 35.54 17.0371 35.4929C17.0113 35.4458 16.9841 35.3868 16.9554 35.3158C16.9267 35.2448 16.9138 35.1702 16.9169 35.092C16.9217 35.0077 16.9496 34.9236 17.0005 34.8396C17.0514 34.7556 17.1435 34.677 17.2769 34.6039C17.426 34.5222 17.5636 34.508 17.6898 34.5613C17.8138 34.6107 17.933 34.6933 18.0475 34.8091C18.1659 34.9228 18.281 35.0536 18.3926 35.2016C18.5022 35.3456 18.6181 35.4734 18.7405 35.5849C18.9173 35.2839 19.0793 34.9604 19.2264 34.6145C19.3754 34.2625 19.4937 33.8967 19.5815 33.517C19.6693 33.1372 19.7165 32.744 19.7232 32.3373C19.7317 31.9246 19.6818 31.503 19.5734 31.0726C19.5432 30.9616 19.5071 30.8539 19.4652 30.7494C19.4271 30.6427 19.3812 30.5403 19.3274 30.4422C19.2178 30.2421 19.0807 30.0571 18.9161 29.8871C18.7494 29.7132 18.5631 29.578 18.3572 29.4817C18.1553 29.3832 17.9342 29.3335 17.6939 29.3325C17.4575 29.3294 17.2138 29.3967 16.9627 29.5343C16.7861 29.631 16.623 29.7383 16.4733 29.856C16.3253 29.9677 16.1851 30.0982 16.0525 30.2473C15.92 30.3965 15.7904 30.5696 15.6637 30.7665C15.5387 30.9575 15.4129 31.1794 15.2863 31.4325C15.1298 31.7427 15.0014 32.0809 14.9011 32.4471C14.7987 32.8093 14.7265 33.1804 14.6848 33.5604C14.6449 33.9343 14.6329 34.3082 14.649 34.682C14.669 35.0536 14.7202 35.4031 14.8027 35.7303Z"/>
<path d="M45.7464 38.5001C45.7739 38.555 45.7876 38.61 45.7876 38.665C45.7876 38.8208 45.7327 38.9582 45.6227 39.0773C45.5219 39.1872 45.3936 39.2422 45.2379 39.2422C45.1188 39.2422 45.0134 39.2102 44.9218 39.146C44.8302 39.0819 44.7614 38.9994 44.7156 38.8987L43.5062 35.7376H38.9983L37.7614 38.9124C37.7156 39.0132 37.6469 39.0956 37.5552 39.1598C37.4636 39.2147 37.3582 39.2422 37.2391 39.2422C37.0834 39.2422 36.9551 39.1872 36.8543 39.0773C36.7535 38.9674 36.7031 38.8345 36.7031 38.6787C36.7031 38.6146 36.7169 38.555 36.7444 38.5001L40.8399 28.3711C40.8857 28.252 40.9499 28.1603 41.0323 28.0962C41.1148 28.0321 41.2019 28 41.2935 28C41.3943 28 41.4859 28.0321 41.5683 28.0962C41.66 28.1603 41.7287 28.2565 41.7745 28.3848L45.7464 38.5001ZM41.1973 30.1165L39.4106 34.6931H43.1076L41.3622 30.1165L41.2797 29.8279L41.1973 30.1165Z"/>
</mask>
<path d="M21.6105 37.7081C21.6591 37.7223 21.7011 37.7477 21.7365 37.7845C21.7759 37.819 21.8074 37.8578 21.831 37.901C21.8848 37.9991 21.8998 38.1057 21.8761 38.2207C21.8563 38.3335 21.8153 38.4402 21.753 38.5406C21.6968 38.6429 21.6292 38.7335 21.5501 38.8126C21.4709 38.8917 21.402 38.9473 21.3431 38.9796C21.2803 39.014 21.2109 39.0316 21.1349 39.0325C21.0588 39.0333 20.9854 39.0251 20.9147 39.0077C20.844 38.9904 20.7791 38.9698 20.7202 38.946C20.6612 38.9222 20.6185 38.9048 20.5921 38.8937C20.4127 38.8084 20.239 38.7149 20.0709 38.6131C19.909 38.5131 19.7486 38.402 19.5899 38.2798C19.4311 38.1577 19.27 38.0266 19.1065 37.8866C18.947 37.7444 18.781 37.5905 18.6086 37.4248C18.5541 37.4649 18.4897 37.5104 18.4155 37.5612C18.3414 37.6121 18.2652 37.664 18.1871 37.717C18.1069 37.7661 18.0286 37.8141 17.9523 37.861C17.876 37.9079 17.8104 37.9465 17.7555 37.9766C17.3278 38.2109 16.9175 38.3465 16.5244 38.3834C16.1353 38.4181 15.7419 38.3378 15.3441 38.1425C15.0871 38.0181 14.8485 37.8479 14.6281 37.632C14.4095 37.4099 14.2142 37.142 14.0422 36.8282C13.8809 36.5339 13.7574 36.2062 13.6718 35.845C13.5861 35.4839 13.5317 35.1055 13.5088 34.7099C13.4898 34.3122 13.5015 33.9053 13.5439 33.4893C13.5902 33.0711 13.6608 32.66 13.7557 32.256C13.8524 31.8459 13.9726 31.4509 14.1165 31.0711C14.2642 30.6891 14.4342 30.3384 14.6264 30.0188C14.8164 29.6953 15.0249 29.4101 15.2518 29.1633C15.4788 28.9165 15.7217 28.7221 15.9807 28.5802C16.0866 28.5221 16.1345 28.4991 16.2261 28.4693C16.3177 28.4395 16.4276 28.4065 16.5147 28.3891L16.7322 28.3387C16.8605 28.3082 16.9439 28.2929 17.0811 28.2726C17.2061 28.2542 17.2771 28.2475 17.3849 28.238C17.4926 28.2285 17.6138 28.2183 17.7238 28.2142C17.8377 28.2079 17.9628 28.2082 18.0992 28.215C18.3199 28.2267 18.5385 28.2906 18.7551 28.4066C18.9757 28.5204 19.1834 28.6667 19.3784 28.8456C19.5772 29.0223 19.7621 29.2245 19.9328 29.4523C20.1054 29.6741 20.255 29.9007 20.3819 30.1322C20.6313 30.5873 20.7858 31.074 20.8454 31.5923C20.9028 32.1067 20.8887 32.6348 20.803 33.1766C20.7191 33.7123 20.5732 34.2514 20.3654 34.7938C20.1555 35.3323 19.9087 35.8502 19.6251 36.3474C19.5966 36.3885 19.5769 36.4223 19.5659 36.4487C19.5588 36.473 19.5628 36.4989 19.5778 36.5264C19.7467 36.7042 19.9055 36.8544 20.0543 36.9769C20.2031 37.0995 20.3552 37.2048 20.5107 37.2931C20.6662 37.3813 20.8302 37.4572 21.0028 37.5208C21.1815 37.5861 21.384 37.6486 21.6105 37.7081ZM14.8027 35.7303C14.8354 35.8552 14.8729 35.9749 14.9153 36.0895C14.9577 36.204 15.0057 36.3103 15.0595 36.4084C15.1562 36.5849 15.2731 36.7377 15.4101 36.8667C15.545 36.9917 15.6946 37.0832 15.8589 37.1411C16.0272 37.1968 16.2101 37.2139 16.4075 37.1925C16.6027 37.1671 16.8122 37.0931 17.0358 36.9706C17.1221 36.9233 17.1975 36.8794 17.2621 36.8389C17.3305 36.7963 17.3931 36.7569 17.4498 36.7207C17.5044 36.6806 17.5559 36.6396 17.6044 36.5977C17.6568 36.5537 17.7092 36.5097 17.7616 36.4657C17.7111 36.4015 17.6492 36.3258 17.5758 36.2384C17.5042 36.145 17.4326 36.0516 17.361 35.9582C17.2873 35.8609 17.2209 35.7723 17.1618 35.6924C17.1045 35.6065 17.0629 35.54 17.0371 35.4929C17.0113 35.4458 16.9841 35.3868 16.9554 35.3158C16.9267 35.2448 16.9138 35.1702 16.9169 35.092C16.9217 35.0077 16.9496 34.9236 17.0005 34.8396C17.0514 34.7556 17.1435 34.677 17.2769 34.6039C17.426 34.5222 17.5636 34.508 17.6898 34.5613C17.8138 34.6107 17.933 34.6933 18.0475 34.8091C18.1659 34.9228 18.281 35.0536 18.3926 35.2016C18.5022 35.3456 18.6181 35.4734 18.7405 35.5849C18.9173 35.2839 19.0793 34.9604 19.2264 34.6145C19.3754 34.2625 19.4937 33.8967 19.5815 33.517C19.6693 33.1372 19.7165 32.744 19.7232 32.3373C19.7317 31.9246 19.6818 31.503 19.5734 31.0726C19.5432 30.9616 19.5071 30.8539 19.4652 30.7494C19.4271 30.6427 19.3812 30.5403 19.3274 30.4422C19.2178 30.2421 19.0807 30.0571 18.9161 29.8871C18.7494 29.7132 18.5631 29.578 18.3572 29.4817C18.1553 29.3832 17.9342 29.3335 17.6939 29.3325C17.4575 29.3294 17.2138 29.3967 16.9627 29.5343C16.7861 29.631 16.623 29.7383 16.4733 29.856C16.3253 29.9677 16.1851 30.0982 16.0525 30.2473C15.92 30.3965 15.7904 30.5696 15.6637 30.7665C15.5387 30.9575 15.4129 31.1794 15.2863 31.4325C15.1298 31.7427 15.0014 32.0809 14.9011 32.4471C14.7987 32.8093 14.7265 33.1804 14.6848 33.5604C14.6449 33.9343 14.6329 34.3082 14.649 34.682C14.669 35.0536 14.7202 35.4031 14.8027 35.7303Z" fill="black"/>
<path d="M45.7464 38.5001C45.7739 38.555 45.7876 38.61 45.7876 38.665C45.7876 38.8208 45.7327 38.9582 45.6227 39.0773C45.5219 39.1872 45.3936 39.2422 45.2379 39.2422C45.1188 39.2422 45.0134 39.2102 44.9218 39.146C44.8302 39.0819 44.7614 38.9994 44.7156 38.8987L43.5062 35.7376H38.9983L37.7614 38.9124C37.7156 39.0132 37.6469 39.0956 37.5552 39.1598C37.4636 39.2147 37.3582 39.2422 37.2391 39.2422C37.0834 39.2422 36.9551 39.1872 36.8543 39.0773C36.7535 38.9674 36.7031 38.8345 36.7031 38.6787C36.7031 38.6146 36.7169 38.555 36.7444 38.5001L40.8399 28.3711C40.8857 28.252 40.9499 28.1603 41.0323 28.0962C41.1148 28.0321 41.2019 28 41.2935 28C41.3943 28 41.4859 28.0321 41.5683 28.0962C41.66 28.1603 41.7287 28.2565 41.7745 28.3848L45.7464 38.5001ZM41.1973 30.1165L39.4106 34.6931H43.1076L41.3622 30.1165L41.2797 29.8279L41.1973 30.1165Z" fill="black"/>
<path d="M21.6105 37.7081L22.1711 35.7883L22.1451 35.7807L22.119 35.7738L21.6105 37.7081ZM21.7365 37.7845L20.2974 39.1732L20.3547 39.2327L20.4167 39.2871L21.7365 37.7845ZM21.831 37.901L23.5849 36.9398L21.831 37.901ZM21.8761 38.2207L19.9173 37.8171L19.9113 37.8463L19.9061 37.8756L21.8761 38.2207ZM21.753 38.5406L20.0533 37.4867L20.0257 37.5312L20.0005 37.577L21.753 38.5406ZM21.3431 38.9796L20.3819 37.2257L21.3431 38.9796ZM20.5921 38.8937L19.733 40.6998L19.7775 40.721L19.823 40.7399L20.5921 38.8937ZM20.0709 38.6131L19.0201 40.3147L19.0273 40.3192L19.0347 40.3237L20.0709 38.6131ZM19.1065 37.8866L17.776 39.3798L17.7906 39.3928L17.8055 39.4056L19.1065 37.8866ZM18.6086 37.4248L19.9944 35.9827L18.7805 34.8163L17.4241 35.8134L18.6086 37.4248ZM18.1871 37.717L19.2307 39.4232L19.2711 39.3985L19.3103 39.3719L18.1871 37.717ZM17.7555 37.9766L18.7166 39.7305L17.7555 37.9766ZM16.5244 38.3834L16.702 40.3755L16.7111 40.3746L16.5244 38.3834ZM15.3441 38.1425L16.2253 36.3471L16.2159 36.3426L15.3441 38.1425ZM14.6281 37.632L13.203 39.0352L13.2155 39.0479L13.2283 39.0605L14.6281 37.632ZM14.0422 36.8282L12.2883 37.7893H12.2883L14.0422 36.8282ZM13.5088 34.7099L11.5111 34.8054L11.5116 34.8155L11.5122 34.8256L13.5088 34.7099ZM13.5439 33.4893L11.556 33.2692L11.5551 33.2779L11.5542 33.2866L13.5439 33.4893ZM13.7557 32.256L11.809 31.7971L11.8087 31.7987L13.7557 32.256ZM14.1165 31.0711L12.2512 30.3495L12.2486 30.3561L12.2461 30.3627L14.1165 31.0711ZM14.6264 30.0188L16.3404 31.0494L16.3457 31.0406L16.3509 31.0317L14.6264 30.0188ZM15.9807 28.5802L15.0195 26.8263L15.9807 28.5802ZM16.5147 28.3891L16.9069 30.3503L16.9365 30.3444L16.9659 30.3376L16.5147 28.3891ZM16.7322 28.3387L17.1835 30.2872L17.1949 30.2845L16.7322 28.3387ZM17.0811 28.2726L16.7888 26.2941L17.0811 28.2726ZM17.7238 28.2142L17.7991 30.2128L17.8167 30.2121L17.8342 30.2111L17.7238 28.2142ZM18.0992 28.215L18.2051 26.2178L18.1998 26.2176L18.0992 28.215ZM18.7551 28.4066L17.8111 30.1697L17.8244 30.1769L17.8379 30.1838L18.7551 28.4066ZM19.3784 28.8456L18.0263 30.3193L18.038 30.3301L18.0499 30.3406L19.3784 28.8456ZM19.9328 29.4523L18.3325 30.6519L18.3433 30.6663L18.3544 30.6805L19.9328 29.4523ZM20.3819 30.1322L18.628 31.0934V31.0934L20.3819 30.1322ZM20.8454 31.5923L22.833 31.3704L22.8323 31.3639L20.8454 31.5923ZM20.803 33.1766L18.8276 32.8642L18.8271 32.8671L20.803 33.1766ZM20.3654 34.7938L22.2289 35.5203L22.2331 35.5093L20.3654 34.7938ZM19.6251 36.3474L21.2692 37.4863L21.3191 37.4143L21.3624 37.3382L19.6251 36.3474ZM19.5659 36.4487L17.7197 35.6796L17.6771 35.7819L17.646 35.8882L19.5659 36.4487ZM19.5778 36.5264L17.8239 37.4875L17.9487 37.7153L18.1276 37.9036L19.5778 36.5264ZM21.0028 37.5208L20.3115 39.3975L20.3158 39.3991L21.0028 37.5208ZM14.8027 35.7303L12.8632 36.2187L12.8656 36.2281L12.868 36.2374L14.8027 35.7303ZM15.0595 36.4084L13.3056 37.3696L15.0595 36.4084ZM15.4101 36.8667L14.0392 38.3229L14.0447 38.328L14.0502 38.3332L15.4101 36.8667ZM15.8589 37.1411L15.1947 39.0275L15.2124 39.0338L15.2302 39.0397L15.8589 37.1411ZM16.4075 37.1925L16.6236 39.1808L16.6444 39.1785L16.6653 39.1758L16.4075 37.1925ZM17.0358 36.9706L17.997 38.7245L17.0358 36.9706ZM17.2621 36.8389L16.2051 35.141L16.1996 35.1445L17.2621 36.8389ZM17.4498 36.7207L18.5255 38.4068L18.5812 38.3713L18.6344 38.3322L17.4498 36.7207ZM17.6044 36.5977L16.3179 35.0664L16.3074 35.0752L16.297 35.0842L17.6044 36.5977ZM17.7616 36.4657L19.048 37.997L20.5308 36.7514L19.3336 35.2293L17.7616 36.4657ZM17.5758 36.2384L15.9885 37.4551L16.0157 37.4906L16.0445 37.5249L17.5758 36.2384ZM17.361 35.9582L15.7669 37.1661L15.7737 37.1749L17.361 35.9582ZM17.1618 35.6924L15.4978 36.802L15.5248 36.8426L15.5539 36.8818L17.1618 35.6924ZM16.9169 35.092L14.9202 34.9775L14.9191 34.9957L14.9184 35.0138L16.9169 35.092ZM17.2769 34.6039L16.3157 32.85L17.2769 34.6039ZM17.6898 34.5613L16.9112 36.4036L16.9304 36.4117L16.9497 36.4194L17.6898 34.5613ZM18.0475 34.8091L16.6251 36.2152L16.6436 36.2338L16.6625 36.252L18.0475 34.8091ZM18.3926 35.2016L16.7964 36.4066L16.8007 36.4123L18.3926 35.2016ZM18.7405 35.5849L17.3931 37.0629L19.2155 38.7242L20.4648 36.5981L18.7405 35.5849ZM19.2264 34.6145L21.0669 35.3974L21.0684 35.3938L19.2264 34.6145ZM19.7232 32.3373L17.7236 32.2963L17.7235 32.3044L19.7232 32.3373ZM19.5734 31.0726L21.513 30.5845L21.5083 30.5658L21.5032 30.5473L19.5734 31.0726ZM19.4652 30.7494L17.5814 31.4214L17.5946 31.4583L17.6092 31.4947L19.4652 30.7494ZM19.3274 30.4422L21.0813 29.481L19.3274 30.4422ZM18.9161 29.8871L17.4724 31.2712L17.4792 31.2783L18.9161 29.8871ZM18.3572 29.4817L17.4804 31.2792L17.4948 31.2863L17.5094 31.2931L18.3572 29.4817ZM17.6939 29.3325L17.6676 31.3323L17.6768 31.3325L17.6859 31.3325L17.6939 29.3325ZM16.9627 29.5343L17.9238 31.2882V31.2882L16.9627 29.5343ZM16.4733 29.856L17.6783 31.4523L17.6941 31.4403L17.7097 31.4281L16.4733 29.856ZM15.6637 30.7665L17.3371 31.8618L17.3414 31.8552L17.3457 31.8486L15.6637 30.7665ZM15.2863 31.4325L17.072 32.3332L17.0749 32.3274L15.2863 31.4325ZM14.9011 32.4471L16.8256 32.9914L16.8279 32.9835L16.83 32.9755L14.9011 32.4471ZM14.6848 33.5604L12.6968 33.342L12.6961 33.3478L14.6848 33.5604ZM14.649 34.682L12.6509 34.768L12.6513 34.7788L12.6519 34.7895L14.649 34.682ZM45.7464 38.5001L43.8848 39.2311L43.9175 39.3144L43.9575 39.3945L45.7464 38.5001ZM45.6227 39.0773L44.1531 37.7207L44.1484 37.7258L45.6227 39.0773ZM44.9218 39.146L46.0687 37.5076L46.0687 37.5076L44.9218 39.146ZM44.7156 38.8987L42.8477 39.6133L42.8696 39.6705L42.8949 39.7263L44.7156 38.8987ZM43.5062 35.7376L45.3741 35.0229L44.8824 33.7376H43.5062V35.7376ZM38.9983 35.7376V33.7376H37.6311L37.1347 35.0116L38.9983 35.7376ZM37.7614 38.9124L39.5821 39.74L39.6049 39.6898L39.6249 39.6384L37.7614 38.9124ZM37.5552 39.1598L38.5842 40.8747L38.6445 40.8386L38.7022 40.7982L37.5552 39.1598ZM36.7444 38.5001L38.5332 39.3945L38.5688 39.3234L38.5985 39.2498L36.7444 38.5001ZM40.8399 28.3711L42.6941 29.1208L42.7005 29.105L42.7066 29.089L40.8399 28.3711ZM41.0323 28.0962L39.8045 26.5175L39.8045 26.5175L41.0323 28.0962ZM41.5683 28.0962L40.3405 29.6749L40.3802 29.7058L40.4214 29.7347L41.5683 28.0962ZM41.7745 28.3848L39.891 29.0575L39.9015 29.0868L39.9129 29.1158L41.7745 28.3848ZM41.1973 30.1165L43.0603 30.8438L43.0945 30.7563L43.1203 30.6659L41.1973 30.1165ZM39.4106 34.6931L37.5475 33.9658L36.4828 36.6931H39.4106V34.6931ZM43.1076 34.6931V36.6931H46.0109L44.9763 33.9804L43.1076 34.6931ZM41.3622 30.1165L39.4391 30.6659L39.4628 30.7487L39.4935 30.8292L41.3622 30.1165ZM41.2797 29.8279L43.2028 29.2785L41.2797 22.5471L39.3567 29.2785L41.2797 29.8279ZM21.05 39.6279C20.7615 39.5437 20.5015 39.3848 20.2974 39.1732L23.1757 36.3957C22.9008 36.1107 22.5567 35.9009 22.1711 35.7883L21.05 39.6279ZM20.4167 39.2871C20.2924 39.1779 20.1726 39.0364 20.0771 38.8622L23.5849 36.9398C23.4422 36.6793 23.2594 36.4601 23.0564 36.2818L20.4167 39.2871ZM20.0771 38.8622C19.9926 38.7079 19.9297 38.529 19.9022 38.3338C19.8749 38.1401 19.887 37.9639 19.9173 37.8171L23.835 38.6242C23.9492 38.0696 23.8788 37.4761 23.5849 36.9398L20.0771 38.8622ZM19.9061 37.8756C19.9318 37.7292 19.9854 37.5962 20.0533 37.4867L23.4528 39.5946C23.6453 39.2842 23.7809 38.9379 23.8461 38.5658L19.9061 37.8756ZM20.0005 37.577C20.0314 37.5208 20.0761 37.4581 20.1362 37.398L22.9639 40.2272C23.1822 40.0089 23.3622 39.765 23.5056 39.5043L20.0005 37.577ZM20.1362 37.398C20.1362 37.398 20.1371 37.3971 20.1388 37.3955C20.1405 37.3939 20.1431 37.3914 20.1468 37.3881C20.1539 37.3816 20.166 37.3709 20.1832 37.357C20.2135 37.3326 20.2807 37.2812 20.3819 37.2257L22.3043 40.7334C22.603 40.5697 22.8271 40.3639 22.9639 40.2272L20.1362 37.398ZM20.3819 37.2257C20.6247 37.0926 20.8807 37.0352 21.1122 37.0326L21.1576 41.0323C21.5412 41.028 21.936 40.9353 22.3043 40.7334L20.3819 37.2257ZM21.1122 37.0326C21.1971 37.0316 21.2918 37.0409 21.3913 37.0653L20.4381 40.9501C20.6791 41.0092 20.9206 41.035 21.1576 41.0323L21.1122 37.0326ZM21.3913 37.0653C21.4002 37.0675 21.4277 37.0748 21.469 37.0914L19.9714 40.8005C20.1306 40.8648 20.2878 40.9132 20.4381 40.9501L21.3913 37.0653ZM21.469 37.0914C21.4112 37.0681 21.377 37.0541 21.3612 37.0475L19.823 40.7399C19.8601 40.7554 19.9112 40.7762 19.9714 40.8005L21.469 37.0914ZM21.4512 37.0876C21.3316 37.0308 21.2171 36.9691 21.1072 36.9025L19.0347 40.3237C19.2608 40.4607 19.4937 40.586 19.733 40.6998L21.4512 37.0876ZM21.1218 36.9114C21.021 36.8491 20.9168 36.7773 20.8094 36.6947L18.3703 39.865C18.5805 40.0266 18.797 40.177 19.0201 40.3147L21.1218 36.9114ZM20.8094 36.6947C20.6803 36.5953 20.5463 36.4865 20.4076 36.3676L17.8055 39.4056C17.9936 39.5667 18.1819 39.72 18.3703 39.865L20.8094 36.6947ZM20.4371 36.3934C20.2984 36.2698 20.1508 36.1331 19.9944 35.9827L17.2229 38.867C17.4112 39.048 17.5957 39.2191 17.776 39.3798L20.4371 36.3934ZM17.4241 35.8134C17.3918 35.8371 17.3462 35.8695 17.2846 35.9117L19.5465 39.2108C19.6332 39.1513 19.7163 39.0928 19.7932 39.0363L17.4241 35.8134ZM17.2846 35.9117C17.213 35.9608 17.1395 36.011 17.064 36.0622L19.3103 39.3719C19.391 39.3171 19.4697 39.2634 19.5465 39.2108L17.2846 35.9117ZM17.1436 36.0109C17.0623 36.0606 16.9826 36.1094 16.9047 36.1573L18.9999 39.5647C19.0746 39.5188 19.1515 39.4716 19.2307 39.4232L17.1436 36.0109ZM16.9047 36.1573C16.8458 36.1936 16.8105 36.2138 16.7943 36.2227L18.7166 39.7305C18.8103 39.6791 18.9062 39.6223 18.9999 39.5647L16.9047 36.1573ZM16.7943 36.2227C16.5512 36.3559 16.4033 36.386 16.3378 36.3921L16.7111 40.3746C17.4317 40.3071 18.1044 40.066 18.7166 39.7305L16.7943 36.2227ZM16.3468 36.3913C16.3507 36.3909 16.3495 36.392 16.3373 36.3895C16.3236 36.3867 16.2869 36.3774 16.2253 36.3471L14.4629 39.938C15.1439 40.2722 15.9017 40.4468 16.702 40.3755L16.3468 36.3913ZM16.2159 36.3426C16.169 36.3198 16.106 36.28 16.0278 36.2034L13.2283 39.0605C13.5909 39.4158 14.0053 39.7163 14.4723 39.9425L16.2159 36.3426ZM16.0532 36.2287C15.9816 36.156 15.8923 36.0425 15.7961 35.867L12.2883 37.7893C12.5361 38.2415 12.8374 38.6639 13.203 39.0352L16.0532 36.2287ZM15.7961 35.867C15.7295 35.7455 15.6664 35.5884 15.6177 35.3833L11.7258 36.3068C11.8485 36.824 12.0323 37.3223 12.2883 37.7893L15.7961 35.867ZM15.6177 35.3833C15.5607 35.1431 15.5221 34.8809 15.5055 34.5942L11.5122 34.8256C11.5414 35.3301 11.6114 35.8246 11.7258 36.3068L15.6177 35.3833ZM15.5065 34.6145C15.4925 34.3211 15.5008 34.0139 15.5336 33.692L11.5542 33.2866C11.5022 33.7967 11.4871 34.3033 11.5111 34.8054L15.5065 34.6145ZM15.5318 33.7094C15.5693 33.3699 15.6264 33.0381 15.7027 32.7133L11.8087 31.7987C11.6952 32.2819 11.6111 32.7723 11.556 33.2692L15.5318 33.7094ZM15.7023 32.7148C15.7798 32.3863 15.8749 32.0749 15.9868 31.7795L12.2461 30.3627C12.0703 30.827 11.9249 31.3055 11.809 31.7971L15.7023 32.7148ZM15.9817 31.7927C16.092 31.5076 16.2128 31.2615 16.3404 31.0494L12.9124 28.9881C12.6556 29.4152 12.4364 29.8706 12.2512 30.3495L15.9817 31.7927ZM16.3509 31.0317C16.4775 30.8162 16.6036 30.648 16.7241 30.517L13.7796 27.8096C13.4462 28.1722 13.1553 28.5743 12.9019 29.0058L16.3509 31.0317ZM16.7241 30.517C16.8233 30.4091 16.8979 30.3582 16.9419 30.3341L15.0195 26.8263C14.5456 27.086 14.1343 27.4239 13.7796 27.8096L16.7241 30.517ZM16.9419 30.3341C16.9519 30.3286 16.9591 30.3247 16.9643 30.3219C16.9694 30.3191 16.9715 30.3181 16.9713 30.3182C16.9708 30.3184 16.9589 30.3246 16.9397 30.3334C16.9192 30.3427 16.8976 30.3517 16.8768 30.3597C16.8573 30.3671 16.8448 30.3712 16.8443 30.3714L15.6079 26.5672C15.3508 26.6508 15.181 26.7378 15.0195 26.8263L16.9419 30.3341ZM16.8443 30.3714C16.8745 30.3616 16.8998 30.3538 16.9185 30.3485C16.9228 30.3473 16.9261 30.3464 16.9285 30.3457C16.9309 30.3451 16.932 30.3448 16.9318 30.3449C16.9316 30.3449 16.9296 30.3454 16.9258 30.3463C16.9221 30.3471 16.9157 30.3485 16.9069 30.3503L16.1224 26.428C15.914 26.4697 15.7111 26.5337 15.6079 26.5672L16.8443 30.3714ZM16.9659 30.3376L17.1835 30.2872L16.281 26.3903L16.0634 26.4407L16.9659 30.3376ZM17.1949 30.2845C17.2572 30.2697 17.2826 30.2646 17.3735 30.2512L16.7888 26.2941C16.6051 26.3213 16.4638 26.3468 16.2695 26.393L17.1949 30.2845ZM17.3735 30.2512C17.4424 30.241 17.4693 30.2383 17.5604 30.2303L17.2094 26.2457C17.085 26.2567 16.9698 26.2674 16.7888 26.2941L17.3735 30.2512ZM17.5604 30.2303C17.6706 30.2206 17.7456 30.2148 17.7991 30.2128L17.6484 26.2156C17.4821 26.2219 17.3146 26.2365 17.2094 26.2457L17.5604 30.2303ZM17.8342 30.2111C17.8658 30.2094 17.9194 30.2085 17.9986 30.2125L18.1998 26.2176C18.0063 26.2078 17.8096 26.2064 17.6134 26.2172L17.8342 30.2111ZM17.9933 30.2122C17.9449 30.2097 17.9023 30.2015 17.8681 30.1915C17.8346 30.1817 17.8153 30.172 17.8111 30.1697L19.6992 26.6434C19.253 26.4045 18.7504 26.2467 18.2051 26.2178L17.9933 30.2122ZM17.8379 30.1838C17.8906 30.211 17.9536 30.2526 18.0263 30.3193L20.7304 27.3718C20.4132 27.0808 20.0607 26.8297 19.6724 26.6293L17.8379 30.1838ZM18.0499 30.3406C18.1418 30.4222 18.2366 30.524 18.3325 30.6519L21.5332 28.2528C21.2875 27.925 21.0127 27.6223 20.7068 27.3505L18.0499 30.3406ZM18.3544 30.6805C18.4655 30.8234 18.5556 30.9611 18.628 31.0934L22.1358 29.171C21.9545 28.8403 21.7452 28.5248 21.5113 28.2241L18.3544 30.6805ZM18.628 31.0934C18.7524 31.3203 18.8283 31.558 18.8585 31.8207L22.8323 31.3639C22.7433 30.5899 22.5102 29.8542 22.1358 29.171L18.628 31.0934ZM18.8577 31.8142C18.8942 32.1405 18.887 32.4886 18.8276 32.8642L22.7785 33.489C22.8904 32.7809 22.9115 32.0729 22.833 31.3704L18.8577 31.8142ZM18.8271 32.8671C18.7664 33.2546 18.6589 33.6578 18.4978 34.0783L22.2331 35.5093C22.4876 34.845 22.6718 34.17 22.7789 33.4861L18.8271 32.8671ZM18.5021 34.0673C18.3273 34.5156 18.1225 34.945 17.8878 35.3565L21.3624 37.3382C21.6949 36.7553 21.9837 36.149 22.2288 35.5203L18.5021 34.0673ZM17.9811 35.2085C17.9222 35.2935 17.8105 35.4617 17.7197 35.6796L21.4121 37.2178C21.3733 37.311 21.3358 37.3783 21.3156 37.4129C21.2937 37.4504 21.2766 37.4756 21.2692 37.4863L17.9811 35.2085ZM17.646 35.8882C17.4565 36.5374 17.6184 37.1125 17.8239 37.4875L21.3317 35.5652C21.5071 35.8853 21.6611 36.4087 21.4857 37.0093L17.646 35.8882ZM18.1276 37.9036C18.3382 38.1254 18.5569 38.3346 18.7828 38.5207L21.3258 35.4331C21.2542 35.3742 21.1552 35.283 21.0281 35.1491L18.1276 37.9036ZM18.7828 38.5207C19.0138 38.711 19.2605 38.8832 19.5236 39.0325L21.4978 35.5536C21.4499 35.5264 21.3924 35.4879 21.3258 35.4331L18.7828 38.5207ZM19.5236 39.0325C19.7764 39.176 20.0397 39.2974 20.3115 39.3975L21.6941 35.6441C21.6208 35.6171 21.556 35.5866 21.4978 35.5536L19.5236 39.0325ZM20.3158 39.3991C20.5646 39.4901 20.8284 39.5705 21.1021 39.6424L22.119 35.7738C21.9397 35.7267 21.7983 35.6822 21.6898 35.6425L20.3158 39.3991ZM12.868 36.2374C12.9163 36.4218 12.9732 36.604 13.0395 36.7833L16.7911 35.3957C16.7727 35.3459 16.7545 35.2887 16.7373 35.2232L12.868 36.2374ZM13.0395 36.7833C13.1128 36.9815 13.2006 37.1781 13.3056 37.3696L16.8134 35.4472C16.8108 35.4425 16.8025 35.4265 16.7911 35.3957L13.0395 36.7833ZM13.3056 37.3696C13.4962 37.7174 13.7391 38.0403 14.0392 38.3229L16.781 35.4104C16.7931 35.4218 16.8021 35.4322 16.8081 35.44C16.8139 35.4477 16.8153 35.4508 16.8134 35.4472L13.3056 37.3696ZM14.0502 38.3332C14.3743 38.6337 14.7578 38.8737 15.1947 39.0275L16.5232 35.2546C16.6313 35.2927 16.7156 35.3497 16.77 35.4002L14.0502 38.3332ZM15.2302 39.0397C15.7015 39.1958 16.1758 39.2294 16.6236 39.1808L16.1913 35.2042C16.2443 35.1984 16.3529 35.1979 16.4876 35.2425L15.2302 39.0397ZM16.6653 39.1758C17.1681 39.1104 17.6164 38.933 17.997 38.7245L16.0746 35.2167C16.0439 35.2335 16.0343 35.2359 16.045 35.2321C16.056 35.2282 16.0918 35.2167 16.1497 35.2092L16.6653 39.1758ZM17.997 38.7245C18.1086 38.6633 18.2191 38.5995 18.3246 38.5333L16.1996 35.1445C16.1759 35.1593 16.1356 35.1832 16.0746 35.2167L17.997 38.7245ZM18.3191 38.5368C18.3926 38.491 18.4616 38.4476 18.5255 38.4068L16.3741 35.0346C16.3247 35.0662 16.2685 35.1016 16.2051 35.141L18.3191 38.5368ZM18.6344 38.3322C18.7287 38.2628 18.8214 38.1893 18.9117 38.1113L16.297 35.0842C16.2903 35.09 16.28 35.0984 16.2653 35.1092L18.6344 38.3322ZM18.8908 38.1291C18.917 38.1071 18.9431 38.0852 18.9693 38.0631C18.9955 38.0411 19.0218 38.0191 19.048 37.997L16.4751 34.9344C16.4489 34.9563 16.4228 34.9783 16.3966 35.0003C16.3704 35.0223 16.3441 35.0444 16.3179 35.0664L18.8908 38.1291ZM19.3336 35.2293C19.2658 35.1431 19.1894 35.0499 19.1071 34.952L16.0445 37.5249C16.1089 37.6016 16.1564 37.6599 16.1895 37.7021L19.3336 35.2293ZM19.1631 35.0217C19.1273 34.975 19.0915 34.9283 19.0557 34.8816C19.0199 34.8349 18.9842 34.7882 18.9484 34.7415L15.7737 37.1749C15.8095 37.2216 15.8453 37.2683 15.8811 37.315C15.9169 37.3617 15.9527 37.4084 15.9885 37.4551L19.1631 35.0217ZM18.9551 34.7504C18.885 34.6579 18.8233 34.5756 18.7697 34.5031L15.5539 36.8818C15.6184 36.969 15.6895 37.0639 15.7669 37.1661L18.9551 34.7504ZM18.8258 34.5829C18.8049 34.5516 18.7915 34.5306 18.7839 34.5184C18.7802 34.5126 18.779 34.5105 18.7798 34.5118C18.7804 34.5128 18.7845 34.5198 18.791 34.5317L15.2833 36.4541C15.3517 36.5789 15.4319 36.7031 15.4978 36.802L18.8258 34.5829ZM18.791 34.5317C18.8043 34.5559 18.8115 34.5714 18.8133 34.5752C18.8152 34.5794 18.8139 34.5769 18.8096 34.5661L15.1012 36.0655C15.1479 36.181 15.2078 36.3164 15.2833 36.4541L18.791 34.5317ZM18.8096 34.5661C18.8893 34.7634 18.9232 34.9714 18.9154 35.1702L14.9184 35.0138C14.9045 35.369 14.9641 35.7262 15.1012 36.0655L18.8096 34.5661ZM18.9136 35.2065C18.8969 35.4979 18.8016 35.7265 18.7111 35.8759L15.2899 33.8033C15.0976 34.1207 14.9466 34.5175 14.9202 34.9775L18.9136 35.2065ZM18.7111 35.8759C18.6034 36.0536 18.4857 36.1711 18.4054 36.2396C18.3251 36.308 18.2623 36.3446 18.2381 36.3578L16.3157 32.85C16.0284 33.0075 15.5968 33.2968 15.2899 33.8033L18.7111 35.8759ZM18.2381 36.3578C18.1308 36.4166 17.9466 36.4957 17.697 36.5215C17.4343 36.5485 17.1617 36.5094 16.9112 36.4036L18.4683 32.7191C17.645 32.3712 16.8585 32.5526 16.3157 32.85L18.2381 36.3578ZM16.9497 36.4194C16.7677 36.3469 16.6628 36.2533 16.6251 36.2152L19.4698 33.4031C19.2032 33.1333 18.8598 32.8746 18.4298 32.7033L16.9497 36.4194ZM16.6625 36.252C16.6952 36.2834 16.7407 36.3327 16.7964 36.4066L19.9889 33.9966C19.8212 33.7745 19.6366 33.5622 19.4325 33.3663L16.6625 36.252ZM16.8007 36.4123C16.9769 36.6439 17.1736 36.8628 17.3931 37.0629L20.0878 34.1068C20.0627 34.0839 20.0275 34.0473 19.9845 33.9908L16.8007 36.4123ZM20.4648 36.5981C20.6884 36.2175 20.8886 35.8165 21.0669 35.3974L17.386 33.8317C17.27 34.1044 17.1462 34.3503 17.0161 34.5717L20.4648 36.5981ZM21.0684 35.3938C21.2631 34.9334 21.4168 34.4574 21.5301 33.9675L17.6329 33.0664C17.5706 33.3359 17.4876 33.5917 17.3845 33.8353L21.0684 35.3938ZM21.5301 33.9675C21.6509 33.4449 21.7141 32.9114 21.723 32.3702L17.7235 32.3044C17.719 32.5767 17.6877 32.8296 17.6329 33.0664L21.5301 33.9675ZM21.7228 32.3784C21.7352 31.7745 21.6616 31.1749 21.513 30.5845L17.6339 31.5608C17.702 31.8311 17.7282 32.0746 17.7236 32.2963L21.7228 32.3784ZM21.5032 30.5473C21.4531 30.3632 21.3925 30.1819 21.3211 30.004L17.6092 31.4947C17.6218 31.5259 17.6334 31.5601 17.6437 31.598L21.5032 30.5473ZM21.3489 30.0773C21.2757 29.8722 21.1866 29.673 21.0813 29.481L17.5735 31.4034C17.5758 31.4075 17.5785 31.4131 17.5814 31.4214L21.3489 30.0773ZM21.0813 29.481C20.8826 29.1184 20.6374 28.7897 20.353 28.4959L17.4792 31.2783C17.524 31.3245 17.553 31.3659 17.5735 31.4034L21.0813 29.481ZM20.3598 28.503C20.0328 28.1619 19.6473 27.8773 19.2051 27.6703L17.5094 31.2931C17.4962 31.2869 17.485 31.2801 17.477 31.2742C17.4691 31.2685 17.4678 31.2664 17.4724 31.2712L20.3598 28.503ZM19.2341 27.6842C18.7428 27.4445 18.2218 27.3346 17.7018 27.3325L17.6859 31.3325C17.6698 31.3324 17.6403 31.3306 17.6012 31.3218C17.5616 31.3129 17.5202 31.2987 17.4804 31.2792L19.2341 27.6842ZM17.7201 27.3327C17.073 27.3242 16.4914 27.5119 16.0015 27.7804L17.9238 31.2882C17.9361 31.2814 17.842 31.3346 17.6676 31.3323L17.7201 27.3327ZM16.0015 27.7804C15.7338 27.9271 15.4779 28.0944 15.2368 28.284L17.7097 31.4281C17.7681 31.3821 17.8385 31.335 17.9238 31.2882L16.0015 27.7804ZM15.2682 28.2598C15.0074 28.4568 14.771 28.6785 14.5575 28.9189L17.5476 31.5757C17.5991 31.5178 17.6432 31.4787 17.6783 31.4523L15.2682 28.2598ZM14.5575 28.9189C14.3457 29.1572 14.1548 29.4153 13.9816 29.6845L17.3457 31.8486C17.4259 31.7238 17.4943 31.6358 17.5476 31.5757L14.5575 28.9189ZM13.9902 29.6713C13.8145 29.9398 13.651 30.2311 13.4977 30.5375L17.0749 32.3274C17.1748 32.1277 17.263 31.9751 17.3371 31.8618L13.9902 29.6713ZM13.5006 30.5317C13.2789 30.9713 13.1045 31.4356 12.9722 31.9186L16.83 32.9755C16.8983 32.7262 16.9808 32.5141 17.072 32.3332L13.5006 30.5317ZM12.9766 31.9027C12.8435 32.3733 12.7504 32.8535 12.6968 33.342L16.6729 33.7788C16.7027 33.5073 16.7538 33.2453 16.8256 32.9914L12.9766 31.9027ZM12.6961 33.3478C12.6456 33.8204 12.6305 34.2941 12.6509 34.768L16.6472 34.5959C16.6354 34.3222 16.6441 34.0482 16.6735 33.7729L12.6961 33.3478ZM12.6519 34.7895C12.6782 35.2767 12.7463 35.7547 12.8632 36.2187L16.7421 35.2419C16.6941 35.0515 16.6599 34.8305 16.6461 34.5744L12.6519 34.7895ZM43.9575 39.3945C43.8628 39.2051 43.7876 38.9557 43.7876 38.665H47.7876C47.7876 38.2643 47.6849 37.905 47.5353 37.6056L43.9575 39.3945ZM43.7876 38.665C43.7876 38.5019 43.8176 38.3218 43.8895 38.142C43.9609 37.9636 44.0584 37.8233 44.1531 37.7207L47.0923 40.4339C47.5279 39.962 47.7876 39.3458 47.7876 38.665H43.7876ZM44.1484 37.7258C44.2763 37.5863 44.4489 37.4545 44.6631 37.3627C44.8753 37.2717 45.0764 37.2422 45.2379 37.2422V41.2422C45.9261 41.2422 46.5988 40.9723 47.097 40.4288L44.1484 37.7258ZM45.2379 37.2422C45.5008 37.2422 45.8017 37.3206 46.0687 37.5076L43.7749 40.7845C44.2251 41.0997 44.7368 41.2422 45.2379 41.2422V37.2422ZM46.0687 37.5076C46.2669 37.6463 46.4325 37.8425 46.5364 38.071L42.8949 39.7263C43.0904 40.1564 43.3934 40.5175 43.7749 40.7845L46.0687 37.5076ZM46.5836 38.184L45.3741 35.0229L41.6382 36.4523L42.8477 39.6133L46.5836 38.184ZM43.5062 33.7376H38.9983V37.7376H43.5062V33.7376ZM37.1347 35.0116L35.8978 38.1863L39.6249 39.6384L40.8619 36.4637L37.1347 35.0116ZM35.9406 38.0848C36.0445 37.8564 36.21 37.6601 36.4083 37.5213L38.7022 40.7982C39.0837 40.5311 39.3867 40.1699 39.5821 39.74L35.9406 38.0848ZM36.5262 37.4448C36.7802 37.2924 37.0385 37.2422 37.2391 37.2422V41.2422C37.678 41.2422 38.1471 41.137 38.5842 40.8747L36.5262 37.4448ZM37.2391 37.2422C37.4006 37.2422 37.6017 37.2717 37.8139 37.3627C38.0282 37.4545 38.2007 37.5863 38.3286 37.7259L35.38 40.4288C35.8782 40.9723 36.5509 41.2422 37.2391 41.2422V37.2422ZM38.3286 37.7259C38.441 37.8485 38.5417 38.0035 38.6109 38.1859C38.6796 38.367 38.7031 38.5376 38.7031 38.6787H34.7031C34.7031 39.3104 34.9249 39.9323 35.38 40.4288L38.3286 37.7259ZM38.7031 38.6787C38.7031 38.9111 38.6507 39.1595 38.5332 39.3945L34.9555 37.6056C34.783 37.9506 34.7031 38.3181 34.7031 38.6787H38.7031ZM38.5985 39.2498L42.6941 29.1208L38.9858 27.6213L34.8902 37.7503L38.5985 39.2498ZM42.7066 29.089C42.6507 29.2344 42.5226 29.4708 42.2602 29.6749L39.8045 26.5175C39.3772 26.8498 39.1208 27.2695 38.9732 27.6531L42.7066 29.089ZM42.2602 29.6749C42.043 29.8438 41.7076 30 41.2935 30V26C40.6961 26 40.1866 26.2203 39.8045 26.5175L42.2602 29.6749ZM41.2935 30C40.9324 30 40.5953 29.8731 40.3405 29.6749L42.7962 26.5175C42.3764 26.191 41.8561 26 41.2935 26V30ZM40.4214 29.7347C40.1052 29.5133 39.9538 29.2333 39.891 29.0575L43.658 27.7121C43.5036 27.2797 43.2147 26.8073 42.7153 26.4577L40.4214 29.7347ZM39.9129 29.1158L43.8848 39.2311L47.608 37.7691L43.6361 27.6538L39.9129 29.1158ZM39.3342 29.3892L37.5475 33.9658L41.2737 35.4204L43.0603 30.8438L39.3342 29.3892ZM39.4106 36.6931H43.1076V32.6931H39.4106V36.6931ZM44.9763 33.9804L43.2309 29.4038L39.4935 30.8292L41.2389 35.4058L44.9763 33.9804ZM43.2853 29.5671L43.2028 29.2785L39.3567 30.3773L39.4391 30.6659L43.2853 29.5671ZM39.3567 29.2785L39.2742 29.5671L43.1203 30.6659L43.2028 30.3773L39.3567 29.2785Z" fill="black" mask="url(#path-6-inside-2_780_2137)"/>
</svg>
